<svg width="470.12mm" height="50.767mm" version="1.1" viewBox="0 0 470.12 50.767" xmlns="http://www.w3.org/2000/svg">
 <g transform="translate(178.36 -66.843)">
  <path d="m247.91 93.647 2.0913 4.2376 4.6765 0.67945-3.3838 3.298 0.7987 4.6577-4.1825-2.1992-4.1825 2.1992 0.79867-4.6577-3.3838-3.298 4.6765-0.67945z" fill="#ffffbf" style="stroke-width:.26458"/>
  <path d="m-137.85 93.647 2.0913 4.2376 4.6765 0.67945-3.3838 3.298 0.7987 4.6577-4.1825-2.1992-4.1825 2.1992 0.79871-4.6577-3.3838-3.298 4.6765-0.67945z" fill="#ffffbf" style="stroke-width:.26458"/>
  <g transform="matrix(.26458 0 0 .26458 -190.24 -216.26)">
   <path d="m44.878 1191.6c7.0227 39.933 41.609 70.269 83.249 70.269h1610.5c41.329 0 75.713-29.883 83.091-69.375-225.58-75.563-540.85-122.5-889.74-122.5-347.5 0-661.66 46.563-887.05 121.6" fill="#393431"/>
  </g>
  <g fill="#ee8534">
   <path d="m-111.91 103.4c0.72953-0.0773 1.0943-0.11571 1.8242-0.19226-0.34959-1.143-0.52386-1.7063-0.87169-2.8179-0.0272 4e-3 -0.0409 6e-3 -0.0681 0.0102-0.35277 1.2164-0.52986 1.8164-0.88439 3m2.2789 1.2686c-1.0841 0.0885-1.6259 0.13299-2.71 0.22295-0.0473 0.16368-0.0709 0.24517-0.11817 0.4078-0.0907 0.27198-0.084 0.49105 0.0198 0.65968 0.10336 0.16933 0.32137 0.24411 0.65332 0.22365 0.19579-0.012 0.29386-0.018 0.48965-0.03 7e-3 1.3977 0.0102 2.0965 0.0169 3.4942-2.1459 0.0134-3.219 0.0205-5.3649 0.0346v-3.1961c0.14075-9e-3 0.21131-0.0134 0.35206-0.0222 0.41203-0.0261 0.6879-0.12594 0.82795-0.30267 0.1397-0.17674 0.27516-0.43179 0.40639-0.76692 0.70025-1.8482 1.0488-2.7992 1.743-4.7539 0.12382-0.37217 0.14428-0.63674 0.0614-0.79055-0.0829-0.15346-0.33196-0.19403-0.74717-0.12241-0.0716 0.0127-0.10759 0.01871-0.1792 0.031-3e-3 -1.3342-5e-3 -2.0013-8e-3 -3.3354 3.4959-0.80502 5.246-1.1969 8.749-1.96 0.0138 1.5261 0.0205 2.2891 0.0342 3.8152-0.0684 0.0113-0.10265 0.01659-0.17074 0.0279-0.42156 0.0695-0.67273 0.20955-0.75351 0.41874-0.0811 0.2099-0.0543 0.48894 0.0797 0.84206 0.71824 1.9522 1.0791 2.9544 1.8026 5.009 0.0705 0.18944 0.1337 0.35418 0.18944 0.49282 0.0557 0.13899 0.12452 0.25682 0.20531 0.35242 0.0811 0.096 0.18943 0.16509 0.32419 0.20601 0.13476 0.0409 0.30867 0.0557 0.52034 0.0434 0.1411-8e-3 0.21131-0.0123 0.35241-0.0205 0.0162 1.5779 0.0243 2.3671 0.0406 3.9454-3.1312 0.0187-4.6968 0.0282-7.8279 0.048-7e-3 -1.4114-0.0113-2.1173-0.0187-3.5288 0.18873-0.0116 0.28328-0.0173 0.47201-0.0286 0.32631-0.0201 0.54467-0.12453 0.65509-0.31608 0.11042-0.19085 0.11888-0.42333 0.0257-0.6939-0.049-0.16298-0.0737-0.24412-0.12277-0.40674" style="stroke-width:.35277"/>
   <path d="m-94.564 96.561c-0.50199 0.0765-0.85864 0.22366-1.0703 0.43814-0.21131 0.21484-0.31396 0.57607-0.30691 1.0862 0.0381 2.8662 0.0575 4.2996 0.0956 7.1658 0.68755-0.0381 1.0311-0.0568 1.7187-0.0945 0.23494-0.013 0.43214-0.055 0.59195-0.1277 0.15945-0.0723 0.28362-0.21308 0.37252-0.42156 0.08854-0.20884 0.14887-0.49811 0.18097-0.86817 0.03175-0.36935 0.04339-0.85864 0.03492-1.4658 1.2015-0.10266 1.8026-0.15346 3.0045-0.25364 0.04551 2.9999 0.06844 4.4999 0.11394 7.4999-4.1514 0.0229-8.3024 0.0469-12.453 0.0716-0.0169-1.5892-0.0251-2.3837-0.042-3.9729 0.50376-0.0293 0.86358-0.1344 1.0795-0.31784 0.21554-0.18309 0.32067-0.51222 0.31537-0.98493-0.0247-2.2069-0.0374-3.3104-0.0621-5.5173-6e-3 -0.47977-0.11747-0.78914-0.33583-0.92531-0.21872-0.13652-0.57854-0.16333-1.0802-0.0829-0.0166-1.5892-0.0251-2.3837-0.042-3.9729 3.1269-0.66779 4.6918-0.99304 7.8241-1.6273 0.02434 1.7483 0.03634 2.6228 0.06068 4.3712" style="stroke-width:.35277"/>
   <path d="m-79.921 102.18c-0.60359 2.9601-0.90591 4.4191-1.512 7.2953-1.5331 8e-3 -2.2997 0.012-3.8328 0.0201-1.1384-4.1352-2.3064-8.2626-3.5079-12.38-0.07232-0.25012-0.13864-0.45649-0.19825-0.61947-0.05997-0.16262-0.14076-0.29773-0.24235-0.40392-0.10195-0.10653-0.23036-0.17321-0.38522-0.20037-0.15487-0.0272-0.35524-0.0226-0.60041 0.01381-0.02787-1.8333-0.04163-2.7502-0.06949-4.5839 2.8581-0.5609 4.2883-0.83465 7.1506-1.368 0.03281 1.9674 0.04904 2.9513 0.08184 4.9187-0.30303 0.0427-0.51681 0.18555-0.64169 0.42755-0.12488 0.24165-0.13793 0.57467-0.03916 1.0022 0.54291 2.4905 0.8149 3.751 1.3603 6.3019 0.02752-2e-3 0.04127-3e-3 0.06879-5e-3 0.41345-2.2387 0.61946-3.3693 1.0315-5.6528-0.07761-0.30938-0.11606-0.46354-0.19367-0.77186-0.13476-0.5221-0.25999-0.89321-0.37535-1.1151-0.11571-0.2219-0.30762-0.31326-0.57607-0.27587l-0.0829-4.9476c2.7117-0.5027 4.0688-0.74787 6.7841-1.2259 0.037 2.099 0.0554 3.1485 0.0924 5.2474-0.42932 0.0571-0.69178 0.21237-0.78774 0.46425-0.096 0.25187-0.0942 0.60499 6e-3 1.0625 0.47695 2.6736 0.71577 4.0226 1.1941 6.7446 0.0275-2e-3 0.0413-3e-3 0.0688-5e-3 0.46742-2.7844 0.70095-4.1912 1.167-7.0331 0.16015-0.98635-0.17745-1.428-1.0128-1.3176-0.037-2.1099-0.0557-3.165-0.0931-5.2749 1.996-0.34924 2.994-0.52069 4.9917-0.85688 0.0392 2.1939 0.0589 3.291 0.0981 5.4845-0.24624 0.0314-0.44908 0.0868-0.60818 0.16616-0.15909 0.079-0.28327 0.19084-0.37252 0.33407-0.0893 0.14358-0.16192 0.32419-0.21872 0.54115-0.0561 0.21765-0.11606 0.48117-0.1792 0.79161-0.9493 4.8305-1.9092 9.6585-2.9026 14.48-1.53 8e-3 -2.2948 0.0113-3.8244 0.019-0.73658-2.9548-1.1042-4.4107-1.8383-7.278" style="stroke-width:.35277"/>
   <path d="m-65.277 99.156c0.7327-0.0557 1.0992-0.0832 1.8323-0.13829-0.37852-1.8743-0.56761-2.8059-0.94578-4.658-0.0275 3e-3 -0.0413 5e-3 -0.0688 7e-3 -0.32666 1.9272-0.49035 2.885-0.81772 4.7888m2.3233 2.25c-1.0876 0.0631-1.6316 0.0952-2.7191 0.16016-0.0434 0.26493-0.0653 0.39757-0.10865 0.66214-0.084 0.44097-0.0716 0.80255 0.037 1.0869 0.1083 0.28503 0.32914 0.41979 0.6618 0.40533 0.19614-9e-3 0.29456-0.0131 0.4907-0.0219 0.0413 2.2775 0.0617 3.4159 0.10301 5.6933-2.1466 0.01-3.2201 0.0145-5.3663 0.0247-0.0395-2.1907-0.0589-3.2864-0.0984-5.4774 0.14111-6e-3 0.21201-0.01 0.35312-0.0159 0.41274-0.0191 0.68684-0.17215 0.82266-0.46283 0.13546-0.28963 0.26422-0.71154 0.38628-1.2672 0.65086-3.0642 0.97611-4.6156 1.6256-7.7563 0.11536-0.59935 0.12911-1.0336 0.0409-1.3014-0.0878-0.2674-0.34113-0.37535-0.75916-0.32349-0.0723 9e-3 -0.1083 0.0134-0.18026 0.0226-0.0402-2.2316-0.0603-3.3474-0.10054-5.5787 3.5294-0.58243 5.2954-0.86323 8.8302-1.4033 0.0427 2.3688 0.0642 3.5531 0.10688 5.9219-0.0688 8e-3 -0.10336 0.012-0.17215 0.0201-0.42438 0.0487-0.6752 0.23212-0.7528 0.5482-0.0776 0.31644-0.0452 0.75705 0.0974 1.3254 0.76304 3.1393 1.1451 4.7274 1.9095 7.9391 0.0741 0.29633 0.14041 0.5535 0.19897 0.7701 0.0585 0.21695 0.12946 0.4018 0.21236 0.55349 0.0832 0.15169 0.19332 0.26317 0.32913 0.33266 0.13617 0.0691 0.31044 0.10019 0.52316 0.0914 0.14111-6e-3 0.21166-8e-3 0.35277-0.0145 0.043 2.4055 0.0649 3.6085 0.10795 6.014-3.1319 0.0134-4.6982 0.0201-7.8301 0.0342-0.0413-2.287-0.0617-3.4307-0.10301-5.718 0.18908-8e-3 0.28398-0.0123 0.47306-0.0205 0.32737-0.0141 0.54397-0.17074 0.65051-0.4713 0.10653-0.30021 0.11006-0.67167 0.0102-1.1116-0.0529-0.26493-0.0797-0.39722-0.13264-0.66144" style="stroke-width:.35277"/>
   <path d="m-54.366 93.129c-0.13652-0.23812-0.25259-0.4646-0.34818-0.67873-0.0956-0.21342-0.19826-0.39722-0.30762-0.54891-0.10901-0.15204-0.23882-0.27128-0.38981-0.3577-0.15098-0.0864-0.34395-0.11677-0.57924-0.0903-0.0434-2.4108-0.0649-3.6162-0.10795-6.0271 3.0236-0.45013 4.5362-0.66779 7.5634-1.0872 0.0441 2.517 0.066 3.7757 0.11007 6.293-0.50517 0.0526-0.83642 0.25188-0.99446 0.59442-0.15769 0.34359-0.1464 0.74681 0.0342 1.2139 0.49811 1.2499 0.74717 1.8792 1.2456 3.1463l0.0688-5e-3c0.44907-1.3412 0.67344-2.0161 1.1225-3.3732 0.19332-0.46318 0.20813-0.86569 0.0441-1.2033-0.16439-0.33725-0.51892-0.47765-1.0643-0.42086-0.0441-2.5234-0.066-3.7848-0.11007-6.3082 2.0732-0.2861 3.1104-0.42544 5.185-0.69707 0.0441 2.5914 0.0663 3.8875 0.11042 6.479-0.17251 0.0169-0.32243 0.067-0.45049 0.14922-0.12806 0.0825-0.24694 0.20814-0.3563 0.37535-0.109 0.16757-0.22048 0.38134-0.33407 0.64133-0.11359 0.26035-0.25046 0.57678-0.41062 0.95001-0.94719 2.5294-1.4206 3.7792-2.3674 6.2483l0.0455 2.6338c0.013 0.74152 0.13123 1.2414 0.35382 1.501 0.22295 0.25929 0.58701 0.38134 1.0922 0.36265 0.0441 2.5572 0.0663 3.836 0.11041 6.3932-3.1598 0.012-4.7394 0.0183-7.8992 0.031-0.0437-2.4489-0.0653-3.6734-0.109-6.1227 0.50516-0.0201 0.86463-0.16403 1.0784-0.4332 0.21307-0.26881 0.31361-0.7648 0.30091-1.4862-0.018-1.0244-0.0272-1.537-0.0455-2.5615-1.0368-2.2789-1.555-3.4014-2.5911-5.6111" style="stroke-width:.35277"/>
   <path d="m-30.441 91.944c-1.1384 0.0843-1.7078 0.127-2.8458 0.21413-0.0561-0.61664-0.16721-1.186-0.33372-1.7067-0.16686-0.52139-0.36829-0.96552-0.60429-1.3324-0.236-0.36618-0.49705-0.6424-0.78209-0.82654-0.28468-0.18379-0.57713-0.26105-0.87592-0.23177-0.3623 0.0353-0.65298 0.20849-0.8724 0.51751-0.21943 0.30903-0.3249 0.72071-0.31644 1.2343 8e-3 0.4907 0.11501 0.8791 0.32138 1.1673 0.20601 0.28821 0.47518 0.52986 0.80607 0.7253 0.3309 0.19578 0.70872 0.37993 1.131 0.55243 0.42297 0.17286 0.85441 0.39475 1.2929 0.66603 0.43849 0.27163 0.87169 0.61064 1.2978 1.0153 0.42649 0.40462 0.80889 0.93766 1.1472 1.5998 0.3383 0.66108 0.61593 1.4792 0.83254 2.4546 0.21659 0.97506 0.33548 2.1544 0.357 3.5347 0.0229 1.4668-0.10407 2.7227-0.38064 3.7616-0.27692 1.0389-0.65721 1.8919-1.1405 2.5579-0.48329 0.66532-1.0449 1.1504-1.6827 1.4559-0.63851 0.3055-1.3021 0.45719-1.9914 0.45824-0.67203 7.9e-4 -1.3165-0.16086-1.9335-0.48117-0.61664-0.32032-1.2499-0.841-1.8997-1.5564 0.0106 0.62511 0.0159 0.93766 0.0261 1.5628-1.137 4e-3 -1.7056 6e-3 -2.8426 0.0106-0.0649-3.8208-0.097-5.7311-0.16192-9.5516 1.1373-0.0575 1.706-0.0857 2.8433-0.14146 0.18944 1.3783 0.5408 2.4581 1.0541 3.2451 0.51257 0.78632 1.0826 1.1747 1.7085 1.1578 0.41944-0.0116 0.72988-0.18415 0.93131-0.52175 0.20142-0.33689 0.29879-0.71718 0.29174-1.1394-0.0106-0.66321-0.19015-1.1694-0.53762-1.5162-0.34783-0.34713-0.7768-0.64945-1.2869-0.90768-0.5101-0.25787-1.0685-0.5482-1.6742-0.86746-0.60605-0.3189-1.1677-0.79232-1.6841-1.416-0.51645-0.6237-0.95459-1.4562-1.3144-2.4966-0.35983-1.0407-0.5542-2.4154-0.58348-4.1316-0.0215-1.2728 0.0942-2.4129 0.34783-3.425 0.25329-1.0132 0.60112-1.8841 1.0435-2.6154 0.44272-0.73023 0.95847-1.3091 1.5472-1.7335 0.58913-0.42402 1.2142-0.67978 1.8753-0.76268 0.91403-0.1143 1.7028 0.0109 2.365 0.37958 0.66285 0.36864 1.1796 0.7842 1.5497 1.2428-0.0109-0.67837-0.0162-1.0177-0.0272-1.6965 1.1387-0.13441 1.7081-0.20073 2.8476-0.3309 0.0617 3.95 0.0928 5.9251 0.15451 9.8751" style="stroke-width:.35277"/>
   <path d="m-23.682 109.24c-0.0416-2.8091-0.0624-4.2135-0.10371-7.0226 0.50552-0.0145 0.86534-0.17356 1.0798-0.478 0.21378-0.30374 0.31503-0.86887 0.30268-1.6936-0.0561-3.8508-0.084-5.7759-0.14005-9.6267-0.0124-0.83712-0.13017-1.3966-0.35277-1.6778-0.2233-0.28115-0.58806-0.4011-1.0943-0.36088-0.0416-2.8088-0.0624-4.2135-0.10371-7.0222 3.9852-0.40921 7.9701-0.79761 11.96-1.1652 0.0483 3.7161 0.0963 7.4325 0.14428 11.149-1.2086 0.0677-1.8129 0.1023-3.0218 0.17321-0.0106-0.80608-0.0367-1.4527-0.0776-1.9381-0.0413-0.48541-0.11113-0.86429-0.2099-1.1377-0.0988-0.27269-0.22789-0.45225-0.38769-0.53868-0.15981-0.0861-0.35771-0.121-0.59336-0.10407-0.48012 0.0346-0.72036 0.0519-1.2005 0.0871 0.031 2.2383 0.0462 3.3576 0.0772 5.5963 1.1014-0.0603 1.652-0.09 2.7534-0.14781 0.0183 1.3754 0.0275 2.063 0.0459 3.4384-1.101 0.0459-1.6513 0.0695-2.752 0.11712 0.0162 1.1924 0.0247 1.7889 0.0409 2.9812 0.01 0.68437 0.0935 1.2149 0.25082 1.591 0.15769 0.37676 0.43744 0.56055 0.83995 0.54997 0.35171-9e-3 0.52774-0.0134 0.87945-0.0226 0.0392 2.8916 0.0586 4.3373 0.0977 7.2289-3.3739 9e-3 -5.0608 0.0138-8.4344 0.024" style="stroke-width:.35277"/>
   <path d="m-4.3894 93.274c0.30408-0.0134 0.45577-0.0198 0.75986-0.0328 0.48365-0.0212 0.81313-0.30796 0.98811-0.86146 0.17532-0.55349 0.25752-1.3165 0.24658-2.287-0.013-1.1324-0.11288-1.9438-0.30021-2.432-0.18732-0.48788-0.5228-0.71788-1.0068-0.68931-0.30444 0.018-0.45648 0.0272-0.76057 0.0455 0.0293 2.5029 0.0437 3.7542 0.073 6.2571m-6.3103 15.929c-0.0374-2.9322-0.0561-4.3983-0.0935-7.3309 0.50587-0.012 0.86605-0.17568 1.0809-0.49176 0.21413-0.31537 0.31643-0.90415 0.30549-1.7642-0.042-3.3464-0.084-6.6927-0.12593-10.039-0.0109-0.87275-0.12806-1.458-0.35066-1.755-0.22295-0.29668-0.58771-0.42791-1.0943-0.39404-0.0377-2.9326-0.0564-4.3987-0.0938-7.3309 3.6632-0.32208 5.4954-0.47201 9.1614-0.74964 0.84806-0.0642 1.5645 0.0794 2.148 0.43144 0.58419 0.35206 1.0548 0.8851 1.4114 1.5973 0.357 0.71224 0.61417 1.5762 0.77186 2.5911 0.15769 1.0138 0.24306 2.1498 0.25611 3.4046 0.024 2.293-0.19049 4.1362-0.64239 5.5233-0.4519 1.3878-1.1895 2.1508-2.2129 2.2955 1e-3 0.0974 1e-3 0.14605 2e-3 0.24376 0.49599 0.0639 0.90838 0.2674 1.2375 0.61065 0.32878 0.34253 0.59019 0.79408 0.7828 1.3532 0.19332 0.55949 0.33266 1.2379 0.41874 2.033 0.0857 0.7955 0.13405 1.6982 0.14463 2.7068 5e-3 0.43355 7e-3 0.65015 0.0113 1.0837 4e-3 0.34077 0.0445 0.63745 0.1217 0.88827 0.0776 0.25152 0.19367 0.3764 0.34889 0.37429 0.16651-2e-3 0.28292-0.12982 0.34924-0.38382 0.0663-0.25293 0.0981-0.55137 0.0945-0.89285-0.0215-2.082-0.0321-3.1231-0.0536-5.2048 0.39687-0.01061 0.59548-0.0159 0.99269-0.0265 0.0208 2.0866 0.0314 3.1298 0.0526 5.216 0.0102 0.98634-0.0423 1.8944-0.15769 2.7237-0.115 0.8283-0.31044 1.5522-0.5856 2.1681-0.27516 0.61629-0.64098 1.0918-1.0968 1.4262-0.45542 0.33442-1.0198 0.50058-1.6915 0.50093-0.67202 0-1.2241-0.1725-1.6555-0.51681-0.43179-0.34465-0.7715-0.81983-1.0199-1.4255-0.24799-0.60606-0.42402-1.3088-0.52774-2.1099-0.10406-0.80078-0.16121-1.6453-0.17109-2.5343-7e-3 -0.62228-0.0106-0.93378-0.018-1.5564-0.012-1.077-0.048-1.949-0.10724-2.6144-0.0593-0.66496-0.15028-1.1811-0.27234-1.5472-0.12206-0.36688-0.27869-0.60712-0.47024-0.72177-0.1912-0.11465-0.42227-0.16721-0.69249-0.15804-0.0829 3e-3 -0.12417 5e-3 -0.20707 7e-3 0.0134 1.1507 0.0201 1.7261 0.0335 2.8772 8e-3 0.71047 0.0995 1.2216 0.27269 1.5324 0.17321 0.3115 0.47836 0.46319 0.91544 0.45402 0.0342 2.9943 0.0515 4.4918 0.0857 7.4865-3.0638 7e-3 -4.5955 0.0102-7.6593 0.018" style="stroke-width:.35277"/>
   <path d="m12.72 101.41c0.23565-4e-3 0.43249-0.0557 0.58983-0.15522 0.15698-0.0998 0.28221-0.28715 0.37499-0.56055 0.0928-0.27339 0.15416-0.64698 0.18485-1.1222 0.0307-0.47518 0.0427-1.0823 0.0367-1.822 1.2086-0.02569 1.8129-0.0381 3.0215-0.0621 0.0296 3.8212 0.0593 7.642 0.0885 11.463-4.0925 6e-3 -8.1846 0.0131-12.277 0.0205-0.0307-3.05-0.0462-4.5751-0.0769-7.6251 0.50623-9e-3 0.86676-0.17709 1.0823-0.50411 0.21519-0.32631 0.31855-0.93695 0.30973-1.8309l-0.1023-10.43c-9e-3 -0.90696-0.12453-1.5169-0.34642-1.8291-0.2226-0.3122-0.58736-0.45543-1.0946-0.42968-0.0307-3.05-0.0459-4.5751-0.0765-7.6251 4.1119-0.27621 8.2262-0.51892 12.342-0.72811 0.0296 3.8212 0.0593 7.642 0.0886 11.463-1.2104 0.0395-1.8154 0.06-3.0257 0.1023-6e-3 -0.7387-0.0286-1.3451-0.067-1.8182-0.0388-0.47307-0.10654-0.8403-0.20426-1.1017-0.0974-0.2607-0.22542-0.44026-0.38522-0.53797-0.15945-0.0981-0.35736-0.14217-0.59371-0.13229-0.62299 0.0268-0.93448 0.0402-1.5571 0.0677 0.0194 2.2161 0.0293 3.3238 0.049 5.5395 1.1028-0.0374 1.6541-0.0554 2.7569-0.0907 0.0123 1.4816 0.0187 2.2224 0.031 3.7041-1.1024 0.0279-1.6534 0.0427-2.7555 0.0723 0.0215 2.3988 0.0321 3.5982 0.0533 5.9967 0.62123-0.01 0.93166-0.0148 1.5529-0.0243" style="stroke-width:.35277"/>
   <path d="m29.371 89.076c-1.1419 0.0254-1.7127 0.0384-2.8542 0.0667-0.0505-0.72353-0.15663-1.3959-0.31925-2.0164-0.16228-0.62088-0.36018-1.155-0.59372-1.6026-0.23318-0.44696-0.49246-0.79091-0.77679-1.0301-0.28363-0.23847-0.57678-0.35277-0.87663-0.34289-0.36336 0.012-0.65686 0.19191-0.87981 0.53903-0.2226 0.34713-0.33195 0.82513-0.32808 1.4326 4e-3 0.5803 0.10795 1.047 0.31221 1.4019 0.20425 0.35453 0.472 0.65862 0.80184 0.9112 0.33019 0.25294 0.70695 0.49458 1.1289 0.72459 0.42227 0.23036 0.853 0.51822 1.2897 0.86217 0.43744 0.34465 0.86852 0.76621 1.2918 1.2615 0.42333 0.49599 0.8015 1.1363 1.1342 1.9215 0.33266 0.78456 0.60288 1.7455 0.81031 2.8835 0.20778 1.1377 0.31537 2.5057 0.32384 4.1027 8e-3 1.6975-0.13053 3.1463-0.41733 4.3454-0.28715 1.1987-0.67555 2.1836-1.1656 2.9544-0.48929 0.76975-1.0558 1.3328-1.6965 1.6884-0.64098 0.35559-1.3063 0.53338-1.9956 0.53338-0.67202 2.7e-4 -1.3148-0.19049-1.9293-0.57148-0.61417-0.38099-1.2428-1.0008-1.887-1.8587 5e-3 0.74434 8e-3 1.1165 0.013 1.8612-1.137 1e-3 -1.7056 2e-3 -2.843 4e-3l-0.0868-11.479c1.1398-0.02191 1.7095-0.0325 2.8493-0.0529 0.17851 1.6474 0.52104 2.9435 1.028 3.891 0.50658 0.94717 1.0735 1.4188 1.7004 1.4128 0.41979-4e-3 0.73199-0.20037 0.93695-0.59264 0.20426-0.39159 0.30515-0.83572 0.30197-1.3324-5e-3 -0.77963-0.17991-1.3797-0.52492-1.7998-0.345-0.42085-0.77186-0.79267-1.2806-1.1172-0.50869-0.32454-1.0654-0.69037-1.6696-1.0953-0.60394-0.40462-1.1631-0.99304-1.6753-1.7631-0.51257-0.76975-0.94506-1.7896-1.2971-3.0589-0.35276-1.2689-0.53656-2.9343-0.55243-4.9977-0.0116-1.53 0.11359-2.8902 0.37605-4.0812 0.26246-1.192 0.61876-2.2023 1.0689-3.032 0.45013-0.82901 0.97329-1.4661 1.5684-1.9095 0.59477-0.44343 1.2248-0.68049 1.8894-0.70942 0.91861-0.0402 1.7095 0.18908 2.371 0.68719 0.66215 0.49882 1.1768 1.034 1.5441 1.604-5e-3 -0.79302-7e-3 -1.1895-0.0116-1.9826 1.1444-0.0434 1.7162-0.0642 2.8606-0.10301l0.0603 11.44" style="stroke-width:.35277"/>
   <path d="m40.088 94.95c-1.1892 0.0109-1.7836 0.01691-2.9724 0.03 6e-3 1.6019 9e-3 2.4031 0.0148 4.005 3e-3 0.76022 0.09 1.3091 0.2607 1.6446 0.17109 0.33619 0.47518 0.5034 0.91226 0.50058 0.0109 3.1982 0.0166 4.797 0.0275 7.9952-3.0638 2e-3 -4.5955 3e-3 -7.6597 6e-3 -0.0159-3.1774-0.0236-4.7659-0.0399-7.9433 0.50657-5e-3 0.86781-0.17568 1.0851-0.51363 0.21696-0.33689 0.32349-0.97082 0.31891-1.9004-0.0169-3.6159-0.0342-7.2318-0.0511-10.848-5e-3 -0.9433-0.11747-1.5808-0.33796-1.9116-0.22118-0.3309-0.58559-0.49-1.0932-0.47765-0.0159-3.1774-0.024-4.7659-0.0399-7.9433 3.0828-0.10019 4.6244-0.14252 7.708-0.21096 0.0113 3.1978 0.0166 4.797 0.0279 7.9948-0.43885 7e-3 -0.74258 0.18168-0.91156 0.5221-0.16898 0.34078-0.25223 0.89851-0.24941 1.6735 5e-3 1.3864 8e-3 2.0799 0.013 3.4667 1.1899-0.0166 1.7847-0.0243 2.9746-0.0381-4e-3 -1.3896-6e-3 -2.0842-0.0106-3.4737-2e-3 -0.77644-0.0907-1.3328-0.26493-1.6682-0.17426-0.33548-0.47765-0.49987-0.91049-0.49282-0.0106-3.1993-0.0159-4.7991-0.0265-7.9983 3.08-0.066 4.6202-0.091 7.7006-0.12558l0.0141 8.029c-0.50798 4e-3 -0.86992 0.17709-1.0855 0.51857-0.21589 0.34112-0.32278 0.9874-0.32102 1.9388 8e-3 3.6483 0.0152 7.2963 0.0226 10.944 2e-3 0.93766 0.11148 1.5758 0.32737 1.9131 0.2166 0.33795 0.57784 0.50692 1.0841 0.50516l0.0141 8.029c-3.0606 1e-3 -4.5906 2e-3 -7.6508 4e-3 -0.0106-3.1996-0.0159-4.7991-0.0265-7.9983 0.43108-3e-3 0.7327-0.17321 0.9045-0.51257 0.17145-0.33831 0.25611-0.88933 0.25364-1.6513l-0.0124-4.0128" style="stroke-width:.35277"/>
   <path d="m57.208 94.6c0.73623 0.0011 1.1045 0.0021 1.8408 4e-3 -0.3436-2.6613-0.5154-3.9919-0.8597-6.6536-0.0279 0-0.0416 0-0.0691-3.44e-4 -0.36547 2.6599-0.54785 3.9898-0.91191 6.6504m2.287 3.3845c-1.0915-0.0021-1.6376-3e-3 -2.729-4e-3 -0.0483 0.37323-0.0727 0.55949-0.121 0.93272-0.0924 0.62017-0.0868 1.137 0.0166 1.5487 0.10371 0.41274 0.32207 0.61805 0.65579 0.6184 0.1965 2.7e-4 0.29492 2.7e-4 0.49176 2.7e-4l-5e-3 8.0396c-2.1473-2.7e-4 -3.2208-2.7e-4 -5.3677 0-2e-3 -3.2158-2e-3 -4.8238-4e-3 -8.0396 0.14146-2.7e-4 0.21202-2.7e-4 0.35383-2.7e-4 0.4145-2.6e-4 0.69142-0.20637 0.83253-0.6184 0.14076-0.41168 0.27728-1.0153 0.40957-1.8101 0.58912-3.6554 1.1797-7.3108 1.772-10.966 0.12699-0.83818 0.14886-1.4555 0.0653-1.8531-0.0833-0.39686-0.33655-0.59653-0.7574-0.59653h-0.18203v-8.0407c3.5661-7.15e-4 5.3494 0.01 8.9155 0.0515-6e-3 3.2113-8e-3 4.8167-0.0145 8.028-0.0691-7.14e-4 -0.10372-1e-3 -0.17321-1e-3 -0.42721-4e-3 -0.68296 0.20355-0.76727 0.62123-0.0843 0.41838-0.0607 1.0244 0.0705 1.8192 0.58524 3.6529 1.1694 7.3059 1.7526 10.959 0.0681 0.40427 0.12912 0.75493 0.18309 1.0502 0.054 0.29598 0.12171 0.54891 0.20143 0.75775 0.0801 0.20919 0.18838 0.36547 0.32278 0.46636 0.13476 0.10125 0.30868 0.15275 0.5214 0.15346 0.14181 7.9e-4 0.21272 7.9e-4 0.35418 1e-3 -7e-3 3.2081-0.0113 4.8118-0.0187 8.0198-3.1326-1e-3 -4.6992-2e-3 -7.8318-2e-3 2e-3 -3.2155 3e-3 -4.8234 6e-3 -8.0389 0.18979 2.7e-4 0.28468 2.7e-4 0.47447 7.9e-4 0.32807 2.7e-4 0.5482-0.20461 0.66074-0.61664 0.11288-0.41133 0.12311-0.92778 0.0317-1.5483-0.048-0.37287-0.072-0.55949-0.11995-0.93236" style="stroke-width:.35277"/>
   <path d="m82.406 77.692c-0.0176 3.1675-0.0265 4.7514-0.0441 7.919-0.50798-0.0138-0.84241 0.18414-1.0033 0.59265-0.16086 0.40956-0.24341 1.0061-0.24764 1.79-0.0378 7.0462-0.0755 14.092-0.11289 21.139-2.0711-2e-3 -3.1068-3e-3 -5.1783-5e-3 -1.4788-5.8715-2.958-11.743-4.4382-17.614-0.01 2.9834-0.0152 4.4749-0.0251 7.4582-3e-3 0.93378 0.10442 1.5275 0.32173 1.7797 0.21801 0.25259 0.57995 0.38099 1.0862 0.38417-0.0116 3.1957-0.0173 4.7934-0.0289 7.9892-2.3713-1e-3 -3.557-2e-3 -5.9279-3e-3 8e-3 -3.2074 0.0116-4.8107 0.0194-8.0181 0.50622 2e-3 0.86922-0.16545 1.089-0.5027 0.21942-0.33689 0.33054-0.97364 0.33301-1.9099 0.01-3.6423 0.0201-7.2843 0.03-10.927 2e-3 -0.95-0.10548-1.5959-0.32384-1.937-0.21836-0.34148-0.58172-0.51575-1.0897-0.52174 8e-3 -3.207 0.012-4.8107 0.0198-8.0177 2.7266 0.0427 4.0896 0.0702 6.8158 0.13793 1.4196 5.6358 2.8377 11.272 4.2562 16.908 0.0123-2.5643 0.0183-3.8462 0.0303-6.4105 5e-3 -0.9433-0.0716-1.5846-0.22895-1.9244-0.15698-0.33972-0.48964-0.5154-0.99763-0.52669 0.0145-3.1855 0.0215-4.7782 0.0356-7.9638 2.244 0.0645 3.3658 0.10124 5.6094 0.18273" style="stroke-width:.35277"/>
   <path d="m90.117 101.3c0.31607 4e-3 0.62616-0.0765 0.92956-0.24094 0.303-0.16474 0.57007-0.51293 0.80148-1.0428 0.2314-0.53091 0.42262-1.2961 0.57396-2.2969 0.15168-1.0012 0.23389-2.3505 0.24693-4.0484 0.0127-1.6693-0.0462-3.0155-0.17674-4.0371-0.13052-1.0223-0.3048-1.8111-0.52279-2.3667-0.21801-0.55631-0.48083-0.92778-0.78774-1.1144-0.30726-0.18662-0.62545-0.2868-0.95425-0.29845-0.32525-0.0116-0.48823-0.0173-0.81349-0.0286-0.036 5.1547-0.072 10.309-0.10829 15.464 0.32456 4e-3 0.48683 6e-3 0.81137 0.0102m-7.3623 7.8304c0.018-3.1658 0.0268-4.7486 0.0448-7.9144 0.50623 5e-3 0.86958-0.15839 1.0904-0.49 0.22048-0.33054 0.33372-0.95776 0.33937-1.881 0.0212-3.5919 0.0427-7.1838 0.0642-10.776 6e-3 -0.93695-0.10019-1.5751-0.31714-1.9155-0.21766-0.34007-0.57995-0.51787-1.0879-0.53198 0.018-3.1658 0.0272-4.7486 0.0452-7.9144 3.679 0.13617 5.518 0.21519 9.1956 0.39651 0.82584 0.0406 1.6245 0.34818 2.3935 0.91932 0.76976 0.57113 1.4513 1.4739 2.0443 2.7026 0.59301 1.229 1.0643 2.8356 1.4135 4.8195 0.34891 1.9836 0.51083 4.4103 0.48578 7.2868-0.0254 2.8765-0.22649 5.2887-0.60288 7.2445-0.37677 1.9547-0.87874 3.5305-1.5067 4.7246-0.62794 1.1948-1.3571 2.0577-2.1889 2.5879-0.83113 0.52986-1.7124 0.79515-2.6426 0.79373-3.5083-0.0212-5.2622-0.0321-8.7706-0.0526" style="stroke-width:.35277"/>
   <path d="m111.82 101.67c0.31608 7e-3 0.62617-0.0681 0.92991-0.22295 0.30371-0.15487 0.57184-0.48576 0.80502-0.99058 0.23318-0.50551 0.4272-1.2354 0.58206-2.1907 0.1552-0.9553 0.24201-2.244 0.26106-3.867 0.0183-1.5956-0.0356-2.8835-0.16229-3.8632-0.127-0.98034-0.29843-1.7384-0.51433-2.275-0.21555-0.53727-0.47694-0.89886-0.78279-1.0844-0.30658-0.1859-0.62405-0.28927-0.95248-0.30796-0.32491-0.0187-0.48752-0.0282-0.8128-0.0466l-0.16438 14.832c0.32456 6e-3 0.48683 0.01 0.81102 0.0166m-7.3905 7.4978c0.0303-3.056 0.0455-4.5839 0.0759-7.6399 0.50588 9e-3 0.86992-0.14534 1.0918-0.46318 0.22153-0.31714 0.33723-0.92038 0.34604-1.8104l0.10584-10.387c9e-3 -0.90309-0.0942-1.5211-0.31007-1.8542-0.2159-0.33301-0.57748-0.51257-1.0848-0.53797 0.0303-3.056 0.0455-4.5839 0.0759-7.6399 3.6744 0.24271 5.5113 0.37535 9.1836 0.66286 0.82479 0.0645 1.621 0.38381 2.3872 0.95212 0.76692 0.56902 1.4446 1.4499 2.0327 2.6366 0.58841 1.1874 1.0534 2.7287 1.3959 4.6234 0.34184 1.8944 0.49564 4.2032 0.46106 6.9365-0.0346 2.7329-0.24342 5.022-0.62616 6.8783-0.38275 1.8549-0.89038 3.351-1.5219 4.4851-0.6318 1.1349-1.3641 1.9561-2.1974 2.4606-0.83323 0.50446-1.7148 0.75739-2.6451 0.75563-3.5083-0.0236-5.2622-0.0353-8.7705-0.0582" style="stroke-width:.35277"/>
   <path d="m128.95 102.08c0.23567 6e-3 0.4332-0.0332 0.59267-0.11853 0.15875-0.0847 0.28786-0.25152 0.38626-0.49846 0.0984-0.24659 0.16828-0.58595 0.20884-1.0199 0.0406-0.4339 0.066-0.98916 0.0755-1.6672 1.2075 0.0473 1.8111 0.0713 3.0183 0.12029-0.0508 3.4469-0.10126 6.8942-0.15169 10.341-4.0925-0.0116-8.1846-0.0229-12.277-0.0335 0.0374-2.9319 0.0564-4.398 0.0938-7.3298 0.50586 0.0123 0.86993-0.1337 1.0925-0.43673 0.22225-0.30232 0.33938-0.8798 0.35031-1.7324 0.0434-3.3182 0.0864-6.6363 0.1298-9.9544 0.0114-0.86534-0.0907-1.4594-0.30548-1.7825-0.21485-0.32314-0.57574-0.50234-1.0826-0.53621 0.0377-2.9319 0.0564-4.3976 0.0938-7.3298 4.1084 0.36159 8.2135 0.75704 12.315 1.186-0.0504 3.4469-0.10125 6.8942-0.15171 10.341-1.2082-0.0808-1.8122-0.12065-3.0204-0.19861 0.0101-0.67697 0-1.2343-0.0282-1.6718-0.0282-0.43744-0.0882-0.78103-0.17992-1.0315-0.0914-0.24941-0.21552-0.42861-0.3725-0.53656s-0.35349-0.17145-0.58949-0.18909c-0.62159-0.0462-0.93237-0.0691-1.5543-0.11465-0.0282 2.0598-0.0427 3.0899-0.0709 5.1501 1.101 0.0617 1.6517 0.0931 2.7526 0.15733-0.019 1.3582-0.0289 2.0372-0.0483 3.395-1.1006-0.0512-1.651-0.0765-2.752-0.12594-0.0307 2.2302-0.0462 3.3453-0.0769 5.5752 0.62052 0.0166 0.93096 0.0247 1.5518 0.0416" style="stroke-width:.35277"/>
   <path d="m142.01 89.044c-0.50589-0.0444-0.86924 0.0684-1.0894 0.33901-0.22011 0.27057-0.33652 0.81243-0.34922 1.6242l-0.17886 11.404c0.68966 0.0215 1.0343 0.0325 1.7236 0.0547 0.236 7e-3 0.43497-0.0349 0.59724-0.12735 0.16192-0.0921 0.29207-0.29209 0.3891-0.599 0.0967-0.30691 0.16827-0.7394 0.21449-1.2968 0.0462-0.55667 0.0769-1.2975 0.0917-2.221 1.2068 0.0614 1.8101 0.0924 3.0169 0.15557-0.0596 3.6335-0.11925 7.267-0.17849 10.901-4.1524-0.0145-8.3049-0.0282-12.457-0.0406 0.0416-2.8084 0.0624-4.2128 0.10369-7.0215 0.50589 0.0148 0.86995-0.12277 1.0929-0.41133 0.2226-0.28821 0.34042-0.83994 0.35277-1.6562 0.0568-3.8103 0.0854-5.7152 0.14253-9.5255 0.0122-0.82795-0.0885-1.398-0.30268-1.7109-0.21413-0.3129-0.57431-0.48999-1.0809-0.53056 0.0416-2.8084 0.0624-4.2128 0.10406-7.0215 3.1675 0.33443 4.7507 0.50976 7.9158 0.87769-0.0434 2.7227-0.0649 4.084-0.10795 6.8067" style="stroke-width:.35277"/>
   <path d="m146.95 109.28c0.0437-2.6609 0.0656-3.9912 0.10938-6.6522 0.50551 0.0169 0.86992-0.11077 1.0929-0.38276 0.2226-0.27128 0.34079-0.79232 0.35349-1.5649 0.06-3.6053 0.09-5.4079 0.14991-9.0136 0.0127-0.7835-0.0875-1.3246-0.30126-1.6245-0.21378-0.29986-0.57324-0.47412-1.0791-0.52139 0.0438-2.6609 0.0656-3.9912 0.10938-6.6522 3.1629 0.39016 4.7433 0.59371 7.9031 1.017-0.0444 2.5615-0.0663 3.842-0.11041 6.4035-0.50554-0.0512-0.86818 0.0483-1.0879 0.29914-0.22013 0.25082-0.33692 0.75952-0.34996 1.524-0.06 3.5182-0.0903 5.2771-0.15029 8.7952-0.013 0.75352 0.0864 1.2714 0.29668 1.5508 0.21061 0.2801 0.56867 0.42897 1.0742 0.44732-0.0441 2.5614-0.0663 3.842-0.11041 6.4035-3.1598-0.012-4.7398-0.018-7.8996-0.0289" style="stroke-width:.35277"/>
   <path d="m162.53 84.229c0.38452 0.0568 0.74364 0.17109 1.0763 0.34183 0.33371 0.17074 0.63603 0.37217 0.90802 0.60394 0.27199 0.23213 0.50623 0.46813 0.70305 0.70942 0.19685 0.2413 0.35703 0.45754 0.48014 0.64945 8e-3 -0.46918 0.0124-0.70413 0.0209-1.1733 1.1352 0.16862 1.7028 0.25364 2.8377 0.4265-0.0628 3.4896-0.0942 5.234-0.15698 8.7236-1.2044-0.11747-1.8069-0.17533-3.0116-0.28962 0.0132-0.72812-0.0236-1.3412-0.10935-1.8407-0.0861-0.49987-0.20495-0.91085-0.35735-1.234-0.15206-0.32278-0.33338-0.56266-0.54327-0.71859-0.20989-0.15592-0.43815-0.24835-0.68472-0.27692-0.33866-0.0395-0.63039 0.0505-0.87592 0.27234-0.24554 0.22118-0.44908 0.60006-0.61066 1.1377-0.1619 0.53797-0.28996 1.2643-0.38381 2.1776-0.0938 0.91438-0.15205 2.0334-0.17568 3.3541-0.0236 1.3437-3e-3 2.4711 0.0649 3.3806 0.0674 0.90909 0.18098 1.6471 0.34044 2.2126 0.15944 0.56619 0.36899 0.97858 0.62828 1.2358 0.25964 0.25752 0.57325 0.39122 0.94081 0.40357 0.24696 8e-3 0.48683-0.0737 0.71966-0.24588 0.23284-0.17216 0.4399-0.44061 0.62159-0.80326 0.18166-0.36265 0.32843-0.81913 0.43847-1.3677 0.11043-0.54927 0.17216-1.2139 0.18629-1.9949 1.1984 0.0734 1.7973 0.11041 2.9957 0.1852-0.0243 1.3529-0.16261 2.6242-0.41344 3.8212-0.25151 1.1977-0.62934 2.2468-1.1338 3.1506-0.50445 0.9045-1.1377 1.628-1.8997 2.1674-0.76198 0.53938-1.6598 0.81489-2.6937 0.81489-0.93025 0-1.8058-0.24341-2.6271-0.7394-0.82124-0.49635-1.531-1.2802-2.1297-2.3561-0.59899-1.0756-1.0632-2.4637-1.3927-4.163-0.32985-1.6993-0.47413-3.7422-0.4332-6.1142 0.0413-2.3724 0.25858-4.3895 0.65262-6.038 0.39368-1.6485 0.89993-2.9689 1.5183-3.9598 0.61841-0.99093 1.3165-1.6767 2.0944-2.0623 0.77716-0.38523 1.5794-0.51258 2.4052-0.39052" style="stroke-width:.35277"/>
   <path d="m169.48 109.37c0.0423-2.3551 0.0639-3.533 0.10618-5.8881 0.50517 0.0212 0.86887-0.0875 1.0915-0.3249 0.22225-0.2367 0.34007-0.6953 0.35208-1.3772 0.0575-3.1827 0.0864-4.7744 0.14393-7.957 0.0122-0.69178-0.0882-1.1733-0.30128-1.4453-0.21378-0.27198-0.57253-0.43849-1.077-0.49705 0.0423-2.3554 0.0639-3.533 0.10617-5.8884 3.1523 0.48576 4.7278 0.73729 7.8763 1.2566-0.0402 2.232-0.0603 3.3481-0.10054 5.5805-0.50411-0.0628-0.86535 0.0113-1.0844 0.22295-0.21908 0.21166-0.33478 0.65262-0.34711 1.3208-0.0554 3.0751-0.0833 4.6128-0.13864 7.6875-0.0119 0.65862 0.0878 1.1126 0.29842 1.3599 0.21098 0.24764 0.56904 0.38205 1.0738 0.40462l-0.10054 5.5808c-3.1594-0.0148-4.7395-0.0219-7.8988-0.0356" style="stroke-width:.35277"/>
   <path d="m184.16 98.919c-0.0204 1.1543-0.0116 2.1223 0.0262 2.9029 0.0377 0.78067 0.11713 1.415 0.23778 1.9011 0.12065 0.48682 0.28787 0.8417 0.502 1.0643 0.21412 0.22225 0.49352 0.33937 0.83783 0.35312 0.32665 0.0134 0.60393-0.0811 0.8311-0.28151 0.22755-0.20037 0.40992-0.53303 0.54679-0.99622 0.13724-0.46248 0.23847-1.0699 0.30303-1.8231 0.0649-0.75316 0.10689-1.6905 0.12629-2.8126 0.0193-1.1035 0.01-2.0429-0.0282-2.8193-0.0381-0.77609-0.11782-1.4051-0.23847-1.8873-0.12031-0.48188-0.2907-0.84347-0.50977-1.0844-0.21942-0.242-0.4921-0.38593-0.81807-0.43179-0.34324-0.048-0.62545 0.0183-0.84664 0.20249-0.22119 0.18309-0.40005 0.50411-0.53726 0.96306-0.13759 0.45931-0.23847 1.0823-0.30409 1.8676-0.0656 0.78562-0.10829 1.7469-0.1284 2.8818m-5.7766-0.50305c0.0346-1.924 0.24694-3.5954 0.63675-4.9956 0.38981-1.4005 0.92496-2.5336 1.6062-3.3954 0.68086-0.86111 1.4813-1.4481 2.4016-1.7642 0.92004-0.31608 1.9318-0.36758 3.0345-0.16792 1.0971 0.19861 2.0983 0.61347 3.0042 1.2266 0.90591 0.61311 1.6813 1.4195 2.3262 2.408 0.64487 0.98881 1.1377 2.1512 1.4795 3.49 0.34115 1.338 0.49813 2.8486 0.4699 4.5493-0.0282 1.6922-0.23424 3.1633-0.61982 4.4322-0.38557 1.2693-0.9172 2.3364-1.5948 3.2056-0.67768 0.86887-1.4799 1.5293-2.4063 1.9734-0.9267 0.44414-1.9413 0.67379-3.044 0.67379-1.1084 0-2.1166-0.23071-3.024-0.70836-0.90765-0.47765-1.6855-1.2033-2.3339-2.1847-0.64839-0.98175-1.1419-2.2059-1.4802-3.6688-0.3383-1.4622-0.49001-3.159-0.45578-5.0739" style="stroke-width:.35277"/>
   <path d="m201.86 91.626c-0.0265 1.8037-0.0399 2.7054-0.0663 4.5091-0.43391-0.0649-0.7366-0.0141-0.90767 0.15381-0.17145 0.16792-0.26035 0.47412-0.26705 0.91685-0.0342 2.2739-0.0512 3.4106-0.0854 5.6845-5e-3 0.30373 0.014 0.59653 0.0554 0.87839 0.0416 0.28151 0.1171 0.53444 0.22542 0.75739 0.10864 0.22331 0.25469 0.40287 0.43918 0.53904 0.18453 0.13581 0.41982 0.2106 0.7066 0.22506 0.54996 0.0282 0.9539-0.1538 1.2121-0.54185 0.25755-0.38734 0.39124-0.92037 0.40076-1.603 0.031-2.191 0.0466-3.2864 0.0776-5.4774 7e-3 -0.49211-0.0942-0.83888-0.30269-1.0414-0.20883-0.20214-0.49845-0.33301-0.86958-0.38875 0.0262-1.7903 0.0392-2.6853 0.0649-4.4759 2.2521 0.44942 3.3774 0.67837 5.627 1.1451-0.0212 1.6781-0.0317 2.5174-0.0526 4.1955-0.3824-0.0596-0.67699-0.0314-0.88439 0.0857-0.20709 0.11712-0.31361 0.4138-0.31996 0.88792-0.0286 2.1886-0.0427 3.2829-0.0713 5.4714-9e-3 0.70378-0.0861 1.4305-0.23072 2.1865-0.14427 0.75633-0.41732 1.4439-0.81878 2.0722-0.40145 0.62793-0.97012 1.1528-1.7049 1.5769-0.73517 0.42438-1.7028 0.64415-2.9033 0.64415-0.87272-2.7e-4 -1.622-0.11288-2.2471-0.34395-0.62545-0.23176-1.1532-0.54044-1.5836-0.92672-0.43003-0.38663-0.7701-0.83042-1.0206-1.3285-0.25049-0.49846-0.44167-1.0163-0.57325-1.5511-0.13229-0.53445-0.21696-1.0569-0.25472-1.5642-0.0377-0.50693-0.0529-0.97258-0.0462-1.3956 0.0402-2.4913 0.0603-3.7365 0.10088-6.2278 9e-3 -0.56937-0.0935-0.97046-0.30689-1.2044-0.21415-0.23389-0.57221-0.38769-1.0752-0.45895 0.0321-1.9473 0.048-2.9213 0.0801-4.8686 3.0434 0.57184 4.5638 0.86535 7.6022 1.4686" style="stroke-width:.35277"/>
   <path d="m220.49 100.68c-1.1282-0.16333-1.6922-0.24447-2.8208-0.40533-0.043-0.34501-0.14182-0.67591-0.29596-0.99375-0.15489-0.3182-0.34468-0.60359-0.57079-0.85688-0.22614-0.25329-0.47802-0.46459-0.75562-0.63145-0.27763-0.16722-0.56481-0.27763-0.86077-0.32914-0.35878-0.0624-0.64979-0.03-0.87347 0.0991-0.224 0.12947-0.33724 0.34607-0.34007 0.64663-3e-3 0.28715 0.0945 0.5355 0.29247 0.74328 0.19788 0.20778 0.4586 0.39933 0.78243 0.57396 0.3235 0.17497 0.69355 0.34959 1.1084 0.52386 0.41487 0.17391 0.83749 0.37464 1.2664 0.5997 0.42897 0.22507 0.85122 0.48224 1.2658 0.76763 0.41484 0.28574 0.78385 0.62687 1.107 1.022 0.32313 0.39475 0.58311 0.85547 0.7803 1.3836 0.19722 0.5281 0.29422 1.1426 0.29033 1.8513-4e-3 0.75352-0.15309 1.3864-0.44871 1.9106-0.29527 0.52386-0.69072 0.95671-1.186 1.2982-0.49564 0.34183-1.0664 0.59618-1.7102 0.75845-0.64453 0.16263-1.3112 0.24624-2.0006 0.24482-0.67167-1e-3 -1.3126-0.0956-1.9219-0.28891-0.60992-0.19297-1.2308-0.51046-1.863-0.96095-4e-3 0.37994-6e-3 0.56973-0.0103 0.95001-1.1366-7e-3 -1.7053-0.0102-2.8419-0.0169 0.0296-2.439 0.0444-3.6582 0.0741-6.0973 1.1331 0.091 1.6993 0.13723 2.832 0.23 0.15663 0.85582 0.48151 1.5402 0.97469 2.0482 0.49316 0.50764 1.0526 0.76904 1.6771 0.79867 0.41801 0.0201 0.73128-0.0596 0.93906-0.23777 0.20777-0.17779 0.31292-0.38522 0.31501-0.6244 3e-3 -0.37534-0.16473-0.67661-0.50268-0.90767-0.33867-0.23142-0.75917-0.44837-1.2608-0.65333-0.50199-0.20461-1.0506-0.43743-1.6456-0.69989-0.59516-0.26211-1.1426-0.61876-1.6407-1.0728-0.49847-0.45437-0.91331-1.0382-1.2453-1.7533-0.33161-0.71506-0.4907-1.6277-0.47729-2.7251 0.0103-0.81419 0.15344-1.5144 0.42826-2.0912 0.27517-0.57713 0.63992-1.0329 1.0943-1.3663 0.45437-0.33231 0.97681-0.54115 1.5677-0.62864 0.59052-0.0875 1.2121-0.0561 1.8654 0.0864 0.90347 0.19755 1.6774 0.49811 2.3226 0.88933s1.1458 0.75881 1.5017 1.1056c3e-3 -0.37076 4e-3 -0.55632 7e-3 -0.92708 1.1239 0.24835 1.6855 0.37358 2.8087 0.62617-0.0114 2.0443-0.0172 3.0663-0.0286 5.1106" style="stroke-width:.35277"/>
   <path d="m222.32 107.7c0-0.31502 0.061-0.61593 0.17958-0.89956 0.11853-0.28327 0.2741-0.52316 0.46669-0.71894 0.19228-0.19544 0.42156-0.34536 0.68792-0.44978 0.26633-0.10442 0.55065-0.14393 0.85405-0.12065 0.29138 0.0222 0.57147 0.10477 0.83995 0.24517 0.26881 0.14041 0.50022 0.31573 0.69458 0.52633 0.19404 0.21025 0.35065 0.45367 0.46778 0.73059s0.17569 0.5609 0.17569 0.8537c0 0.30444-0.0589 0.58665-0.17603 0.84841-0.11785 0.26246-0.27445 0.49105-0.46956 0.68613-0.19542 0.19544-0.42788 0.35313-0.69813 0.47307-0.26985 0.11923-0.55136 0.18026-0.84415 0.18026-0.30446 0-0.59018-0.061-0.85654-0.18555-0.2667-0.12488-0.49598-0.2921-0.6872-0.50235-0.1919-0.21025-0.3457-0.45895-0.46212-0.74504-0.11676-0.2861-0.17391-0.59407-0.17251-0.92179m0.0399-9.7258c0-0.31538 0.0603-0.60641 0.1778-0.87204 0.11782-0.26493 0.27165-0.48083 0.46284-0.64628 0.1905-0.16545 0.4177-0.27798 0.68156-0.3376 0.26387-0.0596 0.54573-0.0529 0.84627 0.01839 0.28893 0.0684 0.56656 0.19402 0.8322 0.37393 0.26635 0.18027 0.49564 0.39158 0.68826 0.63252 0.19224 0.24129 0.34711 0.5101 0.46318 0.80572 0.11604 0.29597 0.17425 0.58877 0.17425 0.88157 0 0.10936-6e-3 0.23071-0.0169 0.363-0.0116 0.13264-0.0282 0.24306-0.0512 0.3309-0.38523 2.1561-0.57891 3.2536-0.96872 5.4866-0.89815-0.0787-1.3476-0.11747-2.2461-0.19508-0.39333-2.389-0.58912-3.6028-0.97859-6.0687-0.0222-0.11536-0.0388-0.24059-0.0497-0.3757-0.0109-0.13476-0.0159-0.26775-0.0153-0.39722" style="stroke-width:.35277"/>
  </g>
 </g>
</svg>
