<?xml version="1.0" encoding="UTF-8" standalone="no"?>
<svg
   xmlns:dc="http://purl.org/dc/elements/1.1/"
   xmlns:cc="http://creativecommons.org/ns#"
   xmlns:rdf="http://www.w3.org/1999/02/22-rdf-syntax-ns#"
   xmlns:svg="http://www.w3.org/2000/svg"
   xmlns="http://www.w3.org/2000/svg"
   id="svg8"
   version="1.1"
   viewBox="0 0 740.83331 740.83331"
   height="740.83331mm"
   width="740.83331mm">
  <defs
     id="defs2">
	
	

		
		
		
		
		
		
		
		
		
	
			
			
		
			
		
			
		
			
			
			
			
		
			
			
		
			
			
		
			
			
		
			
			
			
			
			
			
			
			
			
			
			
			
			
			
			
			
		</defs>
  <metadata
     id="metadata5">
    <rdf:RDF>
      <cc:Work
         rdf:about="">
        <dc:format>image/svg+xml</dc:format>
        <dc:type
           rdf:resource="http://purl.org/dc/dcmitype/StillImage" />
        <dc:title></dc:title>
      </cc:Work>
    </rdf:RDF>
  </metadata>
  <g
     transform="translate(254.75595,218.47023)"
     id="layer1">
    <g
       id="g2753">
      <g
         id="g1001"
         transform="matrix(0.26458333,0,0,0.26458333,-254.75595,-218.47023)">
				<path
   fill="#e7cbbd"
   d="m 1257.4,1587.2 c -17.9,0 -32.5,14.5 -32.5,32.5 v 75.7 h 64.9 v -75.7 c 0.1,-18 -14.5,-32.5 -32.4,-32.5 z"
   id="path935" />

				<path
   fill="#e7cbbd"
   d="m 1456.5,1587.2 c -17.9,0 -32.5,14.5 -32.5,32.5 v 75.7 h 64.9 v -75.7 c 0.1,-18 -14.4,-32.5 -32.4,-32.5 z"
   id="path937" />

				<path
   fill="#5e3020"
   d="m 1404.3,1311.1 h -94.6 c -28.9,0 -52.3,23.4 -52.3,52.3 v 79.3 h 199.1 v -79.3 c 0,-28.9 -23.4,-52.3 -52.2,-52.3 z"
   id="path939" />

				<path
   d="m 1257.4,1587.2 h 199.1 v 262.3999 h -199.1 z"
   style="fill:#f9f6ef"
   id="rect941" />

				<path
   fill="#f7b58b"
   d="m 1322.7,1544.5 v 47.8 c 0,19.1 15.5,34.5 34.5,34.5 v 0 c 19.1,0 34.5,-15.5 34.5,-34.5 v -47.8 z"
   id="path943" />

				<path
   fill="#eb7e63"
   d="m 1322.7,1580.3 c 10.5,4.4 22.1,6.9 34.3,6.9 v 0 c 12.3,0 24.1,-2.5 34.8,-7.1 v -35.7 h -69.1 z"
   id="path945" />

				<path
   fill="#f7b58b"
   d="m 1410.3,1349.8 h -106.7 c -19.7,0 -35.6,15.9 -35.6,35.6 v 97.3 c 0,49.1 39.8,88.9 88.9,88.9 v 0 c 49.1,0 88.9,-39.8 88.9,-88.9 v -97.3 c 0.1,-19.7 -15.9,-35.6 -35.5,-35.6 z"
   id="path947" />

				<path
   fill="#f7b58b"
   d="m 1283.2,1427 c -0.9,-2.9 -7,-4.9 -9.4,-5.4 -18.9,-3.8 -29.3,15.3 -22.7,31.2 3.8,9 16.2,27.8 28.5,22.6 16,-6.6 3.7,-48.2 3.6,-48.4 z"
   id="path949" />

				<path
   fill="#f7b58b"
   d="m 1431.2,1427 c 0.9,-2.9 7,-4.9 9.4,-5.4 18.9,-3.8 29.3,15.3 22.7,31.2 -3.8,9 -16.2,27.8 -28.5,22.6 -16,-6.6 -3.7,-48.2 -3.6,-48.4 z"
   id="path951" />

				<path
   d="m 1318.1,1440.6 a 7,7 0 0 1 -7,7 7,7 0 0 1 -7,-7 7,7 0 0 1 7,-7 7,7 0 0 1 7,7"
   style="fill:#40231b"
   id="circle953" />

				<path
   d="m 1412,1440.6 a 7,7 0 0 1 -7,7 7,7 0 0 1 -7,-7 7,7 0 0 1 7,-7 7,7 0 0 1 7,7"
   style="fill:#40231b"
   id="circle955" />

				<path
   fill="#5e3020"
   d="m 1323.5,1417.4 c -7.6,-4.5 -17.1,-4.5 -24.8,0 -1.6,0.9 -3.7,0.9 -4.8,-0.5 v 0 c -1.1,-1.3 -0.5,-3.7 1.6,-5 9.6,-5.7 21.6,-5.7 31.2,0 2.1,1.2 2.8,3.6 1.6,5 0,0 0,0 0,0 -1.1,1.3 -3.2,1.4 -4.8,0.5 z"
   id="path957" />

				<path
   fill="#5e3020"
   d="m 1417.4,1417.4 c -7.6,-4.5 -17.1,-4.5 -24.8,0 -1.6,0.9 -3.7,0.9 -4.8,-0.5 v 0 c -1.1,-1.3 -0.5,-3.7 1.6,-5 9.6,-5.7 21.6,-5.7 31.2,0 2.1,1.2 2.8,3.6 1.6,5 0,0 0,0 0,0 -1.1,1.3 -3.2,1.4 -4.8,0.5 z"
   id="path959" />

				<path
   fill="#eb7e63"
   d="m 1360.9,1445.7 c -1.2,-3.9 -6.8,-3.9 -8,0 -4.2,13.7 -10,34.4 -8.5,39.7 2.3,8.2 12.5,7.6 12.5,7.6 0,0 10.2,0.6 12.5,-7.6 1.6,-5.3 -4.2,-26.1 -8.5,-39.7 z"
   id="path961" />

				<path
   fill="#ffffff"
   d="M 1387.5,1506 H 1327 c -4.7,0 -8.3,4.4 -7.2,9 4,16.9 19.3,29.5 37.4,29.5 18.2,0 33.4,-12.6 37.4,-29.5 1.1,-4.6 -2.4,-9 -7.1,-9 z"
   id="path963" />

				<path
   fill="#5e3020"
   d="m 1268,1421.2 c 0,0 3.2,-47.8 34.2,-54.5 0,0 8.9,19.4 29.7,27.3 20.9,7.8 33.7,3.9 33.7,24.1 0,0 47.7,-20 16.4,-51.3 0,0 63.7,-7 63.7,54.5 l 6.5,-10.6 c 0,0 11.1,-79 -60.6,-72.8 -71.7,6.2 -110.3,-4.9 -127.2,34.6 0.2,-0.1 -6.2,32.6 3.6,48.7 z"
   id="path965" />

				<g
   id="g971">
					<path
   fill="#e7cbbd"
   d="m 1357,1254.9 c -56,0 -88.9,21 -88.9,21 l 25.3,69.9 c 0,0 61.3,6.3 127.2,0 l 25.3,-69.9 c 0,-0.1 -32.9,-21 -88.9,-21 z"
   id="path967" />

					<path
   fill="#f9f6ef"
   d="m 1426.9,1278.7 c 0,-4.3 -0.7,-8.5 -2.1,-12.5 -15.2,-5.5 -38.4,-11.3 -67.9,-11.3 -56,0 -88.9,21 -88.9,21 l 17.2,47.4 c 14.9,7.9 33.9,12.6 54.6,12.6 48.1,-0.1 87.1,-25.7 87.1,-57.2 z"
   id="path969" />

				</g>

				<path
   d="m 1210.8,1695.4 h 46.6 v 28.7 h -46.6 z"
   style="fill:#f9f6ef"
   id="rect973" />

				<path
   d="m 1456.5,1695.4 h 46.6 v 28.7 h -46.6 z"
   style="fill:#f9f6ef"
   id="rect975" />

				<path
   d="m 1283.4,1585.7 h 25.3 v 83.6999 h -25.3 z"
   style="fill:#f75c31"
   id="rect977" />

				<path
   d="m 1406,1585.7 h 25.3 v 83.6999 H 1406 Z"
   style="fill:#f75c31"
   id="rect979" />

				<path
   d="m 1278.8,1669.3 -21.4,180.3 h 99.8 99.9 l -21.4,-180.3 h -78.5 z"
   style="fill:#f75c31"
   id="polygon981" />

				<g
   id="g987">
					<path
   d="m 1224.9,1724.1 h 32.5 v 125.5 h -32.5 z"
   style="fill:#f7b58b"
   id="rect983" />

					<path
   d="m 1224.9,1724.1 h 32.5 v 15.7 h -32.5 z"
   style="fill:#eb7e63"
   id="rect985" />

				</g>

				<g
   id="g993">
					<path
   d="m 1457.1,1724.1 h 32.5 v 125.5 h -32.5 z"
   style="fill:#f7b58b"
   id="rect989" />

					<path
   d="m 1457.1,1724.1 h 32.5 v 15.7 h -32.5 z"
   style="fill:#eb7e63"
   id="rect991" />

				</g>

				<path
   fill="#c83e24"
   d="m 1316.4,1718.4 v 18 c 0,16.7 13.6,30.3 30.3,30.3 h 21.1 c 16.7,0 30.3,-13.6 30.3,-30.3 v -18 z"
   id="path995" />

				<path
   d="m 1283.4,1660.9 h 25.3 v 8.4 h -25.3 z"
   style="fill:#c83e24"
   id="rect997" />

				<path
   d="m 1406,1660.9 h 25.3 v 8.4 H 1406 Z"
   style="fill:#c83e24"
   id="rect999" />

			</g>
      <path
         d="M -254.75595,-218.47023 H 486.07737 V 522.36309 H -254.75595 Z"
         style="fill:#ffffff;stroke-width:0.264583"
         id="rect833" />
      <path
         fill-rule="evenodd"
         clip-rule="evenodd"
         fill="#b8e2e5"
         d="m 234.2205,-93.904398 c -130.62479,10.742083 -317.367702,37.914791 -398.03916,158.009164 -39.87271,59.398954 -2.30187,140.731874 16.48354,202.617914 13.57313,44.68812 27.86063,89.19104 42.94188,133.40292 0,0 433.38749,-1.79917 433.38749,-1.79917 18.0975,-64.82292 38.20583,-128.82562 52.12292,-194.75979 9.41916,-44.63521 16.80104,-89.82604 20.18771,-135.360832 2.51354,-33.734375 7.22312,-69.05624907 -2.2225,-102.155624 -8.30792,-29.130624 -27.91355,-40.216666 -55.74771,-48.445207 -34.66042,-10.239375 -73.025,-12.964584 -109.11417,-11.509375 z"
         id="path835"
         style="stroke-width:0.264583" />
      <path
         fill-rule="evenodd"
         clip-rule="evenodd"
         fill="#9bccd2"
         d="m 328.99425,398.32643 c 10.42458,-37.30625 21.48417,-74.34792 31.67063,-111.62771 -38.84084,-19.20875 -117.31625,-60.29854 -215.74125,-55.72125 -146.7379165,6.85271 -238.786457,41.14271 -281.11979,71.86084 10.02771,31.98812 20.42583,63.87041 31.22083,95.59395 5.688545,0.66146 11.16542,1.24354 16.007295,1.64042 77.231874,-0.3175 417.962285,-1.74625 417.962285,-1.74625 z"
         id="path837"
         style="stroke-width:0.264583" />
      <g
         id="g865"
         transform="matrix(0.26458333,0,0,0.26458333,-254.75595,-218.47023)">
				<g
   id="g845">
					<g
   id="g843">
						<path
   fill="#ebf5f7"
   d="m 468,1156.9 c -20.1,-52.4 -86.3,-92.4 -163.7,-95.4 -77.4,-3 -137.1,33.6 -137.6,88.8 102.5,4.5 202.7,6.5 301.3,6.6 z"
   id="path841" />

					</g>

				</g>

				<g
   id="g851">
					<g
   id="g849">
						<path
   fill="#ebf5f7"
   d="m 742.1,1152.1 c 0.2,-3.9 0.5,-7.8 0.3,-11.7 -0.2,-45.2 -27.8,-85 -68.2,-113.6 -40.9,-28.5 -94.6,-45.8 -158,-46 -63.2,0 -118,16.7 -156.7,45.6 -38.3,28.8 -60.6,69.8 -50.5,116.6 0.7,4.1 1.9,8.1 3,12.1 146.7,3.3 288.9,1.8 430.1,-3 z"
   id="path847" />

					</g>

				</g>

				<path
   fill="#d6eef2"
   d="m 467.9,1156.9 c -18.1,-46.7 -72.2,-83.3 -138.8,-93 -15.3,45.8 -66.8,78.6 -136.1,75.8 -8.3,-0.4 -16.6,-1.4 -24.8,-2.7 -0.8,4.3 -1.2,8.8 -1.3,13.3 102.3,4.5 202.5,6.5 301,6.6 z"
   id="path853" />

				<path
   fill="#d6eef2"
   d="m 742.1,1152.1 c 0.2,-3.9 0.5,-7.8 0.3,-11.7 -2.3,-59.6 -46.3,-109.8 -111.5,-137.1 -7.1,39.6 -30.5,75.2 -66.9,100.8 -36.2,25.6 -85.5,41.1 -139.5,40.8 -41.1,-0.3 -81,-9.7 -117.2,-25.9 -0.2,7.8 0.1,15.8 1.5,24 0.7,4.1 1.9,8.1 3,12.1 146.9,3.3 289.1,1.8 430.3,-3 z"
   id="path855" />

				<g
   id="g861">
					<g
   id="g859">
						<path
   fill="#ebf5f7"
   d="m 960.9,1142.2 c -24.3,-39.1 -78.8,-63.9 -141.2,-61.2 -62.5,2.8 -115.5,32.1 -137.9,72.9 93.1,-2.5 185.6,-6.4 279.1,-11.7 z"
   id="path857" />

					</g>

				</g>

				<path
   fill="#d6eef2"
   d="m 961,1142.2 c -12.6,-20.1 -33.1,-36.5 -58.7,-47.2 -8.9,20.1 -24.5,38.2 -44.3,52.5 34.2,-1.6 68.5,-3.4 103,-5.3 z"
   id="path863" />

			</g>
      <g
         id="g893"
         transform="matrix(0.26458333,0,0,0.26458333,-254.75595,-218.47023)">
				<g
   id="g873">
					<g
   id="g871">
						<path
   fill="#ebf5f7"
   d="m 2054.9,1399.2 c -20.1,-52.4 -86.3,-92.4 -163.7,-95.4 -77.4,-3 -137.1,33.6 -137.6,88.8 102.5,4.5 202.7,6.6 301.3,6.6 z"
   id="path869" />

					</g>

				</g>

				<g
   id="g879">
					<g
   id="g877">
						<path
   fill="#ebf5f7"
   d="m 2329,1394.5 c 0.2,-3.9 0.5,-7.8 0.3,-11.7 -0.2,-45.2 -27.8,-85 -68.2,-113.6 -40.9,-28.5 -94.6,-45.8 -158,-46 -63.2,0 -118,16.7 -156.7,45.6 -38.3,28.8 -60.6,69.8 -50.5,116.6 0.7,4.1 1.9,8.1 3,12.1 146.8,3.3 289,1.8 430.1,-3 z"
   id="path875" />

					</g>

				</g>

				<path
   fill="#d6eef2"
   d="m 2054.8,1399.2 c -18.1,-46.7 -72.2,-83.3 -138.8,-93 -15.3,45.8 -66.8,78.6 -136.1,75.8 -8.3,-0.4 -16.6,-1.4 -24.8,-2.7 -0.8,4.3 -1.2,8.8 -1.3,13.3 102.4,4.5 202.5,6.6 301,6.6 z"
   id="path881" />

				<path
   fill="#d6eef2"
   d="m 2329,1394.5 c 0.2,-3.9 0.5,-7.8 0.3,-11.7 -2.3,-59.6 -46.3,-109.8 -111.5,-137.1 -7.1,39.6 -30.5,75.2 -66.9,100.8 -36.2,25.6 -85.5,41.1 -139.5,40.8 -41.1,-0.3 -81,-9.7 -117.2,-25.9 -0.2,7.8 0.1,15.8 1.5,24 0.7,4.1 1.9,8.1 3,12.1 147,3.3 289.2,1.8 430.3,-3 z"
   id="path883" />

				<g
   id="g889">
					<g
   id="g887">
						<path
   fill="#ebf5f7"
   d="m 2547.8,1384.6 c -24.3,-39.1 -78.8,-63.9 -141.2,-61.2 -62.5,2.8 -115.5,32.1 -137.9,72.9 93.1,-2.5 185.6,-6.4 279.1,-11.7 z"
   id="path885" />

					</g>

				</g>

				<path
   fill="#d6eef2"
   d="m 2547.9,1384.6 c -12.6,-20.1 -33.1,-36.5 -58.7,-47.2 -8.9,20.1 -24.5,38.2 -44.3,52.5 34.2,-1.6 68.5,-3.4 103,-5.3 z"
   id="path891" />

			</g>
      <g
         id="g901"
         transform="matrix(0.26458333,0,0,0.26458333,-254.75595,-218.47023)">
				<g
   id="g899">
					<path
   fill="#ebf5f7"
   d="m 2144.4,681.8 c 0.1,-1.6 0.3,-3.2 0.3,-4.8 0.1,-37.1 -57.1,-64.6 -125.3,-60.7 -68.2,3.9 -111.3,38.1 -95.8,75.2 0.6,1.6 1.5,3.2 2.2,4.7 71.6,-6.4 144.5,-11.1 218.6,-14.4 z"
   id="path897" />

				</g>

			</g>
      <path
         fill="#d6eef2"
         d="m 312.61654,-38.077316 c 0.0265,-0.423333 0.0794,-0.846666 0.0794,-1.27 -0.13229,-6.482291 -6.48229,-11.853333 -16.24542,-14.446249 -1.40229,8.704791 -12.75292,15.927916 -27.09333,17.039166 -5.45042,0.423333 -10.76854,-0.105833 -15.76917,-1.322917 0.13229,0.846667 0.3175,1.693334 0.635,2.566459 0.15875,0.423333 0.39688,0.846666 0.58209,1.243541 18.9177,-1.693333 38.20583,-2.936875 57.81145,-3.81 z"
         id="path903"
         style="stroke-width:0.264583" />
      <g
         id="g909"
         transform="matrix(0.26458333,0,0,0.26458333,-254.75595,-218.47023)">
				<g
   id="g907">
					<path
   fill="#ebf5f7"
   d="m 2260.3,677.7 c -10.4,-16.4 -39,-27.1 -73.2,-25.7 -34.2,1.4 -62.8,14.2 -74.2,31.3 48.5,-2.5 97.6,-4.3 147.4,-5.6 z"
   id="path905" />

				</g>

			</g>
      <path
         fill="#d6eef2"
         d="m 343.28175,-39.162107 c -1.42875,-2.248959 -4.1275,-4.074584 -7.64646,-5.265209 -1.50812,2.196042 -3.91583,4.153959 -6.82625,5.715 4.78896,-0.185208 9.63084,-0.343958 14.47271,-0.449791 z"
         id="path911"
         style="stroke-width:0.264583" />
      <path
         fill="#81981e"
         d="m 215.85842,332.6833 c 3.86292,0.58209 7.43479,1.93146 10.58333,3.86292 0.0265,-0.18521 0.0265,-0.37042 0.0529,-0.55562 1.05833,-6.93209 7.51417,-11.66813 14.44625,-10.6098 3.54542,0.52917 6.50875,2.51355 8.44021,5.23875 5.87375,-8.06979 15.92791,-12.67354 26.45833,-11.05958 1.50812,0.23813 2.98979,0.58208 4.39208,1.05833 3.83646,-17.06562 20.29354,-28.49562 37.86188,-25.82333 17.80646,2.72521 30.18896,18.94417 28.36333,36.67125 0.0265,0 0.0265,0 0.0529,0 8.12271,1.24354 14.07583,7.85813 14.86958,15.66333 0.18521,0.0265 0.37042,0.0529 0.58208,0.0794 19.26167,2.93687 32.49084,20.92854 29.5275,40.19021 -0.15875,1.11125 -0.39687,2.19604 -0.66145,3.25437 l -44.50292,-6.79979 -24.89729,-3.81 -42.88896,-6.56167 -21.29896,-3.25437 -17.78,-2.72521 -17.33021,-2.64583 -39.13187,-5.97959 c 0.0529,-0.74083 0.13229,-1.4552 0.23812,-2.19604 2.3548,-15.63687 16.98625,-26.37896 32.62313,-23.99771 z"
         id="path915"
         style="stroke-width:0.264583" />
      <path
         fill="#a2b31c"
         d="m 198.63404,335.8583 c 3.14855,0.47625 6.05896,1.56105 8.62542,3.14855 0.0265,-0.15875 0.0265,-0.29105 0.0529,-0.4498 0.87312,-5.63562 6.11187,-9.49854 11.7475,-8.65187 2.88396,0.44979 5.31812,2.03729 6.87916,4.25979 4.78896,-6.56167 12.96459,-10.31875 21.53709,-8.99583 1.24354,0.18521 2.43416,0.47625 3.57187,0.84666 3.12209,-13.89062 16.51,-23.20395 30.82396,-21.00791 14.49917,2.2225 24.57979,15.42521 23.09812,29.845 0,0 0.0265,0 0.0265,0 6.61459,1.00541 11.45646,6.37646 12.09146,12.75291 0.15875,0.0265 0.3175,0.0265 0.47625,0.0529 15.68979,2.38125 26.43188,17.03917 24.05063,32.72896 -0.1323,0.89958 -0.3175,1.77271 -0.52917,2.64583 l -36.24792,-5.52979 -20.26708,-3.09562 -34.925,-5.34459 -17.33021,-2.64583 -14.47271,-2.19604 -14.12875,-2.14313 -31.85583,-4.86833 c 0.0529,-0.58208 0.10583,-1.19063 0.18521,-1.77271 1.95792,-12.77937 13.86417,-21.53708 26.59062,-19.57917 z"
         id="path917"
         style="stroke-width:0.264583" />
      <path
         fill="#81981e"
         d="m -1.7613699,336.4933 c -3.8629166,0.635 -7.4083332,2.0373 -10.5304161,3.99521 -0.02646,-0.18521 -0.02646,-0.37041 -0.05292,-0.55562 -1.137708,-6.90563 -7.672917,-11.56229 -14.578542,-10.42459 -3.545416,0.58209 -6.482291,2.59292 -8.360833,5.34459 -5.979583,-7.99042 -16.086666,-12.46188 -26.590624,-10.71563 -1.508125,0.23813 -2.963334,0.635 -4.392084,1.11125 -4.074583,-17.0127 -20.663958,-28.23104 -38.179371,-25.32062 -17.78,2.96333 -29.95083,19.34104 -27.88708,37.04166 -0.0265,0 -0.0265,0 -0.0529,0 -8.09625,1.34938 -13.97,8.01688 -14.65792,15.84855 -0.1852,0.0265 -0.37041,0.0529 -0.58208,0.0794 -19.20875,3.20146 -32.19979,21.35188 -29.02479,40.56063 0.18521,1.11125 0.42333,2.16958 0.68792,3.22791 l 44.42354,-7.38187 24.84437,-4.1275 42.809581,-7.11729 21.246042,-3.51896 17.727083,-2.93688 17.3037496,-2.88396 39.0524994,-6.48229 c -0.05292,-0.71437 -0.15875,-1.45521 -0.264583,-2.19604 C 28.612796,344.45726 13.849047,333.90039 -1.7613699,336.4933 Z"
         id="path921"
         style="stroke-width:0.264583" />
      <path
         fill="#a2b31c"
         d="m -152.3622,360.01476 c 3.75708,-0.82021 7.51417,-0.84666 11.08604,-0.18521 -0.0529,-0.1852 -0.10583,-0.34395 -0.13229,-0.52916 -1.48167,-6.74688 2.80458,-13.38792 9.525,-14.86959 3.46604,-0.76729 6.87917,0 9.60437,1.82563 2.54,-9.49854 10.16,-17.25083 20.42584,-19.49979 1.48166,-0.3175 2.936871,-0.50271 4.418538,-0.58209 -2.487083,-17.03916 8.598958,-33.36395 25.691041,-37.09458 17.330208,-3.78354 34.44875,6.74688 39.026042,23.70667 0.02646,0 0.02646,0 0.02646,0 7.911041,-1.71979 15.71625,2.24896 19.182291,9.15458 0.185209,-0.0529 0.370417,-0.10583 0.555625,-0.13229 18.7325001,-4.10104 37.253333,7.77875 41.354375,26.51125 0.238125,1.08479 0.423333,2.14312 0.529166,3.20146 l -43.338749,9.44562 -24.235833,5.29167 -41.75125,9.12812 -20.716876,4.52438 -17.30375,3.78354 -16.88042,3.67771 -38.07354,8.30792 c -0.21166,-0.68792 -0.39687,-1.37584 -0.55562,-2.09021 -3.30729,-15.21354 6.35,-30.26834 21.56354,-33.57563 z"
         id="path923"
         style="stroke-width:0.264583" />
      <path
         d="m 400.53758,402.61265 a 295.80416,55.006872 0 0 1 -295.80416,55.00688 295.80416,55.006872 0 0 1 -295.80418,-55.00688 295.80416,55.006872 0 0 1 295.80418,-55.00687 295.80416,55.006872 0 0 1 295.80416,55.00687"
         style="clip-rule:evenodd;fill:#8ba916;fill-rule:evenodd;stroke-width:0.264583"
         id="ellipse927" />
      <path
         fill-rule="evenodd"
         clip-rule="evenodd"
         fill="#a9c21f"
         d="m 104.73342,347.63226 c -92.577707,0 -175.207081,7.91104 -229.44666,20.29354 -0.37042,1.56105 -0.58209,3.12209 -0.58209,4.68313 0,41.08979 132.42396,74.37437 295.80417,74.37437 75.00937,0 143.50999,-7.01145 195.63291,-18.6002 21.96042,-7.67292 34.39583,-16.45709 34.39583,-25.77042 0,-30.37417 -132.42395,-54.98042 -295.80416,-54.98042 z"
         id="path929"
         style="stroke-width:0.264583" />
      <path
         id="ellipse933"
         style="clip-rule:evenodd;fill:#8ca816;fill-rule:evenodd;stroke-width:0.264583"
         d="m 293.48717,406.81955 a 179.91666,22.225 0 0 1 -179.91667,22.225 179.91666,22.225 0 0 1 -179.916666,-22.225 179.91666,22.225 0 0 1 179.916666,-22.225 179.91666,22.225 0 0 1 179.91667,22.225" />
      <g
         id="g1061"
         transform="matrix(0.26458333,0,0,0.26458333,-254.75595,-218.47023)">
				<g
   id="g1039">
					<path
   d="M 1930,2363 H 822.9 V 1797.2 H 1930 Z"
   style="clip-rule:evenodd;fill:#9a4337;fill-rule:evenodd"
   id="polygon1003" />

					<path
   d="M 822.90002,1808 H 1034.3 v 546.2 H 822.90002 Z"
   style="clip-rule:evenodd;fill:#db7453;fill-rule:evenodd"
   id="rect1005" />

					<path
   d="m 1045,1808 h 211.4 v 546.2 H 1045 Z"
   style="clip-rule:evenodd;fill:#db7453;fill-rule:evenodd"
   id="rect1007" />

					<path
   d="M 1478.8,2354.2 H 1267.4 V 1808 h 211.4 z"
   style="clip-rule:evenodd;fill:#db7453;fill-rule:evenodd"
   id="polygon1009" />

					<path
   d="M 1702.7,2354.2 H 1491.4 V 1808 h 211.3 z"
   style="clip-rule:evenodd;fill:#db7453;fill-rule:evenodd"
   id="polygon1011" />

					<path
   d="M 1925.2,2354.2 H 1713.8 V 1808 h 211.4 z"
   style="clip-rule:evenodd;fill:#db7453;fill-rule:evenodd"
   id="polygon1013" />

					<g
   id="g1037">
						<path
   d="m 822.70001,1854.2 h 0.2 v 86.4 h -0.2 z"
   style="fill:#ffffff"
   id="rect1015" />

						<path
   d="m 1478.8,1854.2 h 12.6 v 86.4 h -12.6 z"
   style="clip-rule:evenodd;fill:#83342e;fill-rule:evenodd"
   id="rect1017" />

						<path
   d="m 1256.3,1854.2 h 11.1 v 86.4 h -11.1 z"
   style="clip-rule:evenodd;fill:#83342e;fill-rule:evenodd"
   id="rect1019" />

						<path
   d="m 1925.2,1854.2 h 0.1 v 86.4 h -0.1 z"
   style="clip-rule:evenodd;fill:#83342e;fill-rule:evenodd"
   id="rect1021" />

						<path
   d="m 1702.7,1854.2 h 11.1 v 86.4 h -11.1 z"
   style="clip-rule:evenodd;fill:#83342e;fill-rule:evenodd"
   id="rect1023" />

						<path
   d="m 1034.2,1854.2 h 10.7 v 86.4 h -10.7 z"
   style="clip-rule:evenodd;fill:#83342e;fill-rule:evenodd"
   id="rect1025" />

						<path
   d="M 822.90002,1854.2 H 1034.3 v 86.4 H 822.90002 Z"
   style="clip-rule:evenodd;fill:#b5533c;fill-rule:evenodd"
   id="rect1027" />

						<path
   d="m 1045,1854.2 h 211.4 v 86.4 H 1045 Z"
   style="clip-rule:evenodd;fill:#b5533c;fill-rule:evenodd"
   id="rect1029" />

						<path
   d="m 1267.4,1854.2 h 211.4 v 86.4 h -211.4 z"
   style="clip-rule:evenodd;fill:#b5533c;fill-rule:evenodd"
   id="rect1031" />

						<path
   d="m 1491.4,1854.2 h 211.4 v 86.4 h -211.4 z"
   style="clip-rule:evenodd;fill:#b5533c;fill-rule:evenodd"
   id="rect1033" />

						<path
   d="m 1713.8,1854.2 h 211.4 v 86.4 h -211.4 z"
   style="clip-rule:evenodd;fill:#b5533c;fill-rule:evenodd"
   id="rect1035" />

					</g>

				</g>

				<path
   fill-rule="evenodd"
   clip-rule="evenodd"
   fill="#9a4337"
   d="m 839.9,2333.5 c 4.3,0 7.8,2.9 7.8,6.4 0,3.5 -3.5,6.4 -7.8,6.4 -4.3,0 -7.8,-2.9 -7.8,-6.4 0,-3.5 3.5,-6.4 7.8,-6.4 z"
   id="path1041" />

				<path
   fill-rule="evenodd"
   clip-rule="evenodd"
   fill="#9a4337"
   d="m 1015.2,2333.5 c 4.3,0 7.8,2.9 7.8,6.4 0,3.5 -3.5,6.4 -7.8,6.4 -4.3,0 -7.8,-2.9 -7.8,-6.4 0,-3.5 3.5,-6.4 7.8,-6.4 z"
   id="path1043" />

				<path
   fill-rule="evenodd"
   clip-rule="evenodd"
   fill="#9a4337"
   d="m 1063.8,2333.5 c 4.3,0 7.8,2.9 7.8,6.4 0,3.5 -3.5,6.4 -7.8,6.4 -4.3,0 -7.8,-2.9 -7.8,-6.4 0,-3.5 3.5,-6.4 7.8,-6.4 z"
   id="path1045" />

				<path
   fill-rule="evenodd"
   clip-rule="evenodd"
   fill="#9a4337"
   d="m 1239.2,2333.5 c 4.3,0 7.8,2.9 7.8,6.4 0,3.5 -3.5,6.4 -7.8,6.4 -4.3,0 -7.8,-2.9 -7.8,-6.4 0,-3.5 3.5,-6.4 7.8,-6.4 z"
   id="path1047" />

				<path
   fill-rule="evenodd"
   clip-rule="evenodd"
   fill="#9a4337"
   d="m 1286.3,2333.5 c 4.3,0 7.8,2.9 7.8,6.4 0,3.5 -3.5,6.4 -7.8,6.4 -4.3,0 -7.8,-2.9 -7.8,-6.4 0,-3.5 3.5,-6.4 7.8,-6.4 z"
   id="path1049" />

				<path
   fill-rule="evenodd"
   clip-rule="evenodd"
   fill="#9a4337"
   d="m 1461.6,2333.5 c 4.3,0 7.8,2.9 7.8,6.4 0,3.5 -3.5,6.4 -7.8,6.4 -4.3,0 -7.8,-2.9 -7.8,-6.4 0,-3.5 3.5,-6.4 7.8,-6.4 z"
   id="path1051" />

				<path
   fill-rule="evenodd"
   clip-rule="evenodd"
   fill="#9a4337"
   d="m 1510.2,2333.5 c 4.3,0 7.8,2.9 7.8,6.4 0,3.5 -3.5,6.4 -7.8,6.4 -4.3,0 -7.8,-2.9 -7.8,-6.4 0,-3.5 3.6,-6.4 7.8,-6.4 z"
   id="path1053" />

				<path
   fill-rule="evenodd"
   clip-rule="evenodd"
   fill="#9a4337"
   d="m 1685.6,2333.5 c 4.3,0 7.8,2.9 7.8,6.4 0,3.5 -3.5,6.4 -7.8,6.4 -4.3,0 -7.8,-2.9 -7.8,-6.4 0,-3.5 3.5,-6.4 7.8,-6.4 z"
   id="path1055" />

				<path
   fill-rule="evenodd"
   clip-rule="evenodd"
   fill="#9a4337"
   d="m 1735.7,2333.5 c 4.3,0 7.8,2.9 7.8,6.4 0,3.5 -3.5,6.4 -7.8,6.4 -4.3,0 -7.8,-2.9 -7.8,-6.4 0,-3.5 3.5,-6.4 7.8,-6.4 z"
   id="path1057" />

				<path
   fill-rule="evenodd"
   clip-rule="evenodd"
   fill="#9a4337"
   d="m 1911.1,2333.5 c 4.3,0 7.8,2.9 7.8,6.4 0,3.5 -3.5,6.4 -7.8,6.4 -4.3,0 -7.8,-2.9 -7.8,-6.4 0,-3.5 3.5,-6.4 7.8,-6.4 z"
   id="path1059" />

			</g>
      <path
         d="M 274.543,260.84893 H -61.795327 l 39.608124,-11.35062 H 238.45384 Z"
         style="clip-rule:evenodd;fill:#9a4337;fill-rule:evenodd;stroke-width:0.264583"
         id="polygon1063" />
      <path
         d="M 274.543,265.39976 H -61.795327 v -4.55083 H 274.543 Z"
         style="clip-rule:evenodd;fill:#db7453;fill-rule:evenodd;stroke-width:0.264583"
         id="polygon1065" />
      <g
         id="g1077"
         transform="matrix(0.26458333,0,0,0.26458333,-254.75595,-218.47023)">
				<path
   d="m 1708.8,2091.3999 a 321.10001,144.7 0 0 1 -321.1,144.7 321.10001,144.7 0 0 1 -321.1001,-144.7 321.10001,144.7 0 0 1 321.1001,-144.7 321.10001,144.7 0 0 1 321.1,144.7"
   style="clip-rule:evenodd;fill:#b5533c;fill-rule:evenodd"
   id="ellipse1067" />

				<path
   d="m 1697.4001,2083.3999 a 321.10001,144.7 0 0 1 -321.1001,144.7 321.10001,144.7 0 0 1 -321.1,-144.7 321.10001,144.7 0 0 1 321.1,-144.7 321.10001,144.7 0 0 1 321.1001,144.7"
   style="clip-rule:evenodd;fill:#f9e6c4;fill-rule:evenodd"
   id="ellipse1069" />

				<g
   id="g1075">
					<path
   fill="#c83e24"
   d="m 1212.4,2102.1 c 0,9.4 -5.1,16.5 -15.4,21.4 -10.1,4.7 -24.7,7.1 -43.9,7.1 -3,0 -5.4,-0.7 -7.3,-2 -2.3,-1.6 -3.4,-4.1 -3.4,-7.5 v -68.5 c 0,-5.9 3.2,-8.8 9.4,-8.8 h 21.6 c 6.5,0 12.1,1.1 16.9,3.2 3.9,1.7 7.2,4.2 9.7,7.3 2,2.4 3.5,5.1 4.4,8.1 0.7,2.2 1.1,4.1 1.1,5.8 0,5.3 -1.4,10 -4.2,14.1 7.3,4.3 11.1,10.9 11.1,19.8 z m -51,-7.7 v 16.8 c 21.4,-0.8 32,-3.9 32,-9.5 0,-2.2 -1.4,-4 -4.1,-5.3 -2.6,-1.3 -5.8,-1.9 -9.7,-1.9 h -18.2 z m 0,-31.6 v 12.5 h 17.1 c 5.3,0 8,-2.2 8,-6.7 l -0.1,-0.3 c 0,-0.3 0,-0.5 -0.1,-0.7 -0.2,-0.7 -0.7,-1.4 -1.4,-2 -2.1,-1.9 -5.9,-2.8 -11.5,-2.8 z m 124.7,-19.1 c 3.4,0 6,1.2 7.7,3.5 0.6,0.8 1,1.8 1.4,2.9 0.2,0.8 0.3,1.6 0.3,2.3 l 0.4,10.1 c 0.1,3.7 0.1,6.9 0.1,9.7 0,4 -0.1,7.9 -0.3,11.5 -0.2,4.1 -0.6,8.1 -1.2,12.1 -1.5,10.6 -5.3,18.9 -11.3,24.8 -6.7,6.5 -15.9,9.8 -27.5,9.8 -11.5,0 -20.7,-4.4 -27.4,-13.3 -6.3,-8.3 -9.7,-19.3 -10.2,-33 -0.1,-4.5 -0.2,-9 -0.2,-13.6 l 0.2,-18.2 c 0,-1.9 0.7,-3.7 2.2,-5.3 1.8,-2.1 4.4,-3.2 7.6,-3.2 3.3,0 5.8,1.1 7.5,3.3 1.2,1.6 1.8,3.4 1.8,5.3 0,3.2 -0.1,6 -0.1,8.1 0,2.7 -0.1,5.3 -0.1,7.6 0,4.4 0.1,8.9 0.2,13.4 0.4,9.4 1.9,16.7 4.6,21.9 3.2,6 7.9,8.9 14.2,8.9 5.1,0 9.3,-1.3 12.5,-3.9 3.9,-3.2 6.2,-8.2 7.1,-15 0.5,-3.6 0.8,-7.3 0.9,-11.2 0.1,-3.2 0.2,-6.9 0.2,-11.1 l -0.1,-18.6 c 0,-1.9 0.6,-3.7 1.8,-5.3 1.7,-2.3 4.3,-3.5 7.7,-3.5 z m 67.4,51.7 c 3.3,2.8 6.4,5.9 9.2,9.2 3.5,4 6.4,8.3 8.9,12.9 0.7,1.2 1,2.6 1,4.1 0,5.8 -3.1,8.7 -9.4,8.7 -3.6,0 -6.3,-1.4 -8.3,-4.3 -3.4,-5.1 -6.7,-9.4 -10,-12.8 -2.7,-2.8 -5.3,-5 -7.9,-6.6 -2,-1.2 -3.9,-2 -5.8,-2.4 -0.7,-0.1 -1.4,-0.2 -2.1,-0.3 l -1.5,-0.1 c -1.6,0 -3.4,0.1 -5.3,0.3 v 17.7 c 0,5.6 -3.1,8.4 -9.4,8.4 -6.3,0 -9.4,-2.9 -9.4,-8.7 V 2053 c 0,-4.2 1.4,-7 4.1,-8.4 2.2,-1.1 6.3,-1.7 12.2,-1.7 h 2.2 c 14.7,0 26.3,2.4 34.6,7.3 8.7,5 13,12.2 13,21.5 0,5.4 -1.6,10.3 -4.8,14.5 -2.6,3.6 -6.4,6.6 -11.3,9.2 z m -2.6,-23.4 c 0,-3.3 -2.2,-5.8 -6.7,-7.8 -5,-2.2 -12.2,-3.3 -21.8,-3.3 v 24.7 c 8,-0.8 14.7,-2.4 20,-4.8 5.6,-2.5 8.5,-5.4 8.5,-8.8 z m 92.8,14.2 c 5.2,0 10.2,0.7 15,2.2 4.2,1.2 6.3,4 6.3,8.4 0,4.3 -2.2,7.2 -6.7,8.4 -2.9,7.5 -7.5,13.6 -14,18.1 -6.9,4.8 -15.1,7.2 -24.4,7.2 -12.4,0 -22.6,-4.4 -30.7,-13.2 -7.4,-8.2 -11.2,-17.9 -11.2,-29.2 0,-11.2 3.9,-21.3 11.7,-30.1 4,-4.5 8.6,-7.9 13.8,-10.4 5.7,-2.7 11.8,-4 18.3,-4 6.1,0 11.8,1.1 16.9,3.4 4.4,1.9 8.3,4.6 11.6,8.1 2.8,2.9 5,6 6.6,9.4 1.5,3 2.2,5.5 2.2,7.6 0,6 -3.1,9 -9.3,9 -4.4,0 -7.4,-2 -9,-6.1 -1.3,-3.6 -3.3,-6.4 -6,-8.5 -3.3,-2.6 -7.7,-3.9 -13,-3.9 -4.2,0 -8,1 -11.4,2.8 -2.9,1.7 -5.5,3.9 -7.7,6.8 -3.8,5.1 -5.7,10.4 -5.7,15.8 0,5.9 1.9,11.1 5.7,15.6 4.3,5.2 10,7.8 17.1,7.8 7.8,0 13.8,-2.7 17.8,-8 l -7.3,1.4 c -0.7,0.1 -1.5,0.2 -2.2,0.2 -6.3,0 -9.4,-2.8 -9.4,-8.5 0,-3.9 2.1,-6.6 6.4,-8.1 3.9,-1.5 10,-2.2 18.6,-2.2 z m 48.1,25 h 41.1 c 6.2,0 9.4,3.2 9.4,9.5 0,6.4 -3.1,9.6 -9.4,9.6 h -50.4 c -6.4,0 -9.6,-3 -9.6,-8.9 v -69 c 0,-5.9 3.2,-8.9 9.6,-8.9 h 50.7 c 6.3,0 9.4,3.2 9.4,9.6 0,6.3 -3.1,9.5 -9.4,9.5 h -41.3 v 13.5 h 35.5 c 6.2,0 9.4,3.1 9.4,9.4 0,6.4 -3.1,9.6 -9.4,9.6 h -35.5 v 16.1 z m 107.4,-15.8 c 3.3,2.8 6.4,5.9 9.2,9.2 3.5,4 6.4,8.3 8.9,12.9 0.7,1.2 1,2.6 1,4.1 0,5.8 -3.1,8.7 -9.4,8.7 -3.6,0 -6.3,-1.4 -8.3,-4.3 -3.4,-5.1 -6.7,-9.4 -10,-12.8 -2.7,-2.8 -5.3,-5 -7.9,-6.6 -2,-1.2 -3.9,-2 -5.8,-2.4 -0.7,-0.1 -1.4,-0.2 -2.1,-0.3 l -1.5,-0.1 c -1.6,0 -3.4,0.1 -5.3,0.3 v 17.7 c 0,5.6 -3.1,8.4 -9.4,8.4 -6.3,0 -9.4,-2.9 -9.4,-8.7 V 2053 c 0,-4.2 1.4,-7 4.1,-8.4 2.2,-1.1 6.3,-1.7 12.2,-1.7 h 2.2 c 14.7,0 26.3,2.4 34.6,7.3 8.7,5 13,12.2 13,21.5 0,5.4 -1.6,10.3 -4.8,14.5 -2.6,3.6 -6.5,6.6 -11.3,9.2 z m -2.7,-23.4 c 0,-3.3 -2.2,-5.8 -6.7,-7.8 -5,-2.2 -12.2,-3.3 -21.8,-3.3 v 24.7 c 8,-0.8 14.7,-2.4 20,-4.8 5.7,-2.5 8.5,-5.4 8.5,-8.8 z"
   id="path1071" />

					<path
   fill="#f75c31"
   d="m 1208.4,2098.8 c 0,9.4 -5.1,16.5 -15.4,21.4 -10.1,4.7 -24.7,7.1 -43.9,7.1 -3,0 -5.4,-0.7 -7.3,-2 -2.3,-1.6 -3.4,-4.1 -3.4,-7.5 v -68.5 c 0,-5.9 3.2,-8.8 9.4,-8.8 h 21.6 c 6.5,0 12.1,1.1 16.9,3.2 3.9,1.7 7.2,4.2 9.7,7.3 2,2.4 3.5,5.1 4.4,8.1 0.7,2.2 1.1,4.1 1.1,5.8 0,5.3 -1.4,10 -4.2,14.1 7.3,4.2 11.1,10.9 11.1,19.8 z m -51,-7.7 v 16.8 c 21.4,-0.8 32,-3.9 32,-9.5 0,-2.2 -1.4,-4 -4.1,-5.3 -2.6,-1.3 -5.8,-1.9 -9.7,-1.9 h -18.2 z m 0,-31.6 v 12.5 h 17.1 c 5.3,0 8,-2.2 8,-6.7 l -0.1,-0.3 c 0,-0.3 0,-0.5 -0.1,-0.7 -0.2,-0.7 -0.7,-1.4 -1.4,-2 -2.1,-1.9 -5.9,-2.8 -11.5,-2.8 z m 124.7,-19.1 c 3.4,0 6,1.2 7.7,3.5 0.6,0.8 1,1.8 1.4,2.9 0.2,0.8 0.3,1.6 0.3,2.3 l 0.4,10.1 c 0.1,3.7 0.1,6.9 0.1,9.7 0,4 -0.1,7.9 -0.3,11.5 -0.2,4.1 -0.6,8.1 -1.2,12.1 -1.5,10.6 -5.3,18.9 -11.3,24.8 -6.7,6.5 -15.9,9.8 -27.5,9.8 -11.5,0 -20.7,-4.4 -27.4,-13.3 -6.3,-8.3 -9.7,-19.3 -10.2,-33 -0.1,-4.5 -0.2,-9 -0.2,-13.6 l 0.2,-18.2 c 0,-1.9 0.7,-3.7 2.2,-5.3 1.8,-2.1 4.4,-3.2 7.6,-3.2 3.3,0 5.8,1.1 7.5,3.3 1.2,1.6 1.8,3.4 1.8,5.3 0,3.2 -0.1,6 -0.1,8.1 0,2.7 -0.1,5.3 -0.1,7.6 0,4.4 0.1,8.9 0.2,13.4 0.4,9.4 1.9,16.7 4.6,21.9 3.2,6 7.9,8.9 14.2,8.9 5.1,0 9.3,-1.3 12.5,-3.9 3.9,-3.2 6.2,-8.2 7.1,-15 0.5,-3.6 0.8,-7.4 0.9,-11.2 0.1,-3.2 0.2,-6.9 0.2,-11.1 l -0.1,-18.6 c 0,-1.9 0.6,-3.7 1.8,-5.3 1.7,-2.4 4.3,-3.5 7.7,-3.5 z m 67.4,51.7 c 3.3,2.8 6.4,5.9 9.2,9.2 3.5,4 6.4,8.3 8.9,12.9 0.7,1.2 1,2.6 1,4.1 0,5.8 -3.1,8.7 -9.4,8.7 -3.6,0 -6.3,-1.4 -8.3,-4.3 -3.4,-5.1 -6.7,-9.4 -10,-12.8 -2.7,-2.8 -5.3,-5 -7.9,-6.6 -2,-1.2 -3.9,-2 -5.8,-2.4 -0.7,-0.1 -1.4,-0.2 -2.1,-0.3 l -1.5,-0.1 c -1.6,0 -3.4,0.1 -5.3,0.3 v 17.7 c 0,5.6 -3.1,8.4 -9.4,8.4 -6.3,0 -9.4,-2.9 -9.4,-8.7 v -68.5 c 0,-4.2 1.4,-7 4.1,-8.4 2.2,-1.1 6.3,-1.7 12.2,-1.7 h 2.2 c 14.7,0 26.3,2.4 34.6,7.3 8.7,5 13,12.2 13,21.5 0,5.4 -1.6,10.3 -4.8,14.5 -2.6,3.5 -6.4,6.6 -11.3,9.2 z m -2.6,-23.4 c 0,-3.3 -2.2,-5.8 -6.7,-7.8 -5,-2.2 -12.2,-3.3 -21.8,-3.3 v 24.7 c 8,-0.8 14.7,-2.4 20,-4.8 5.6,-2.5 8.5,-5.5 8.5,-8.8 z m 92.8,14.1 c 5.2,0 10.2,0.7 15,2.2 4.2,1.2 6.3,4 6.3,8.4 0,4.3 -2.2,7.2 -6.7,8.4 -2.9,7.5 -7.5,13.6 -14,18.1 -6.9,4.8 -15.1,7.2 -24.4,7.2 -12.4,0 -22.6,-4.4 -30.7,-13.2 -7.4,-8.2 -11.2,-17.9 -11.2,-29.2 0,-11.2 3.9,-21.3 11.7,-30.1 4,-4.5 8.6,-7.9 13.8,-10.4 5.7,-2.7 11.8,-4 18.3,-4 6.1,0 11.8,1.1 16.9,3.4 4.4,1.9 8.3,4.6 11.6,8.1 2.8,2.9 5,6 6.6,9.4 1.5,3 2.2,5.5 2.2,7.6 0,6 -3.1,9 -9.3,9 -4.4,0 -7.4,-2 -9,-6.1 -1.3,-3.6 -3.3,-6.4 -6,-8.5 -3.3,-2.6 -7.7,-3.9 -13,-3.9 -4.2,0 -8,1 -11.4,2.8 -2.9,1.7 -5.5,3.9 -7.7,6.8 -3.8,5.1 -5.7,10.4 -5.7,15.8 0,5.9 1.9,11.1 5.7,15.6 4.3,5.2 10,7.8 17.1,7.8 7.8,0 13.8,-2.7 17.8,-8 l -7.3,1.4 c -0.7,0.1 -1.5,0.2 -2.2,0.2 -6.3,0 -9.4,-2.8 -9.4,-8.5 0,-3.9 2.1,-6.6 6.4,-8.1 3.9,-1.4 10,-2.2 18.6,-2.2 z m 48.1,25.1 h 41.1 c 6.2,0 9.4,3.2 9.4,9.5 0,6.4 -3.1,9.6 -9.4,9.6 h -50.4 c -6.4,0 -9.6,-3 -9.6,-8.9 v -69 c 0,-5.9 3.2,-8.9 9.6,-8.9 h 50.7 c 6.3,0 9.4,3.2 9.4,9.6 0,6.3 -3.1,9.5 -9.4,9.5 h -41.3 v 13.5 h 35.5 c 6.2,0 9.4,3.1 9.4,9.4 0,6.4 -3.1,9.6 -9.4,9.6 h -35.5 v 16.1 z m 107.4,-15.8 c 3.3,2.8 6.4,5.9 9.2,9.2 3.5,4 6.4,8.3 8.9,12.9 0.7,1.2 1,2.6 1,4.1 0,5.8 -3.1,8.7 -9.4,8.7 -3.6,0 -6.3,-1.4 -8.3,-4.3 -3.4,-5.1 -6.7,-9.4 -10,-12.8 -2.7,-2.8 -5.3,-5 -7.9,-6.6 -2,-1.2 -3.9,-2 -5.8,-2.4 -0.7,-0.1 -1.4,-0.2 -2.1,-0.3 l -1.5,-0.1 c -1.6,0 -3.4,0.1 -5.3,0.3 v 17.7 c 0,5.6 -3.1,8.4 -9.4,8.4 -6.3,0 -9.4,-2.9 -9.4,-8.7 v -68.5 c 0,-4.2 1.4,-7 4.1,-8.4 2.2,-1.1 6.3,-1.7 12.2,-1.7 h 2.2 c 14.7,0 26.3,2.4 34.6,7.3 8.7,5 13,12.2 13,21.5 0,5.4 -1.6,10.3 -4.8,14.5 -2.6,3.5 -6.5,6.6 -11.3,9.2 z m -2.7,-23.4 c 0,-3.3 -2.2,-5.8 -6.7,-7.8 -5,-2.2 -12.2,-3.3 -21.8,-3.3 v 24.7 c 8,-0.8 14.7,-2.4 20,-4.8 5.7,-2.5 8.5,-5.5 8.5,-8.8 z"
   id="path1073" />

				</g>

			</g>
      <g
         id="g1083"
         transform="matrix(0.26458333,0,0,0.26458333,-254.75595,-218.47023)">
				<path
   d="m 1909.9,1157.4 h 40.4 v 639.8 h -40.4 z"
   style="clip-rule:evenodd;fill:#a73a2b;fill-rule:evenodd"
   id="polygon1079" />

				<path
   fill-rule="evenodd"
   clip-rule="evenodd"
   fill="#762d26"
   d="m 1909.9,1339.1 40.4,29.5 v -133 c -2,-5.4 -3.7,-8.3 -4.8,-7.7 -3.3,1.9 -18.9,8.8 -35.6,16 z"
   id="path1081" />

			</g>
      <g
         id="g1089"
         transform="matrix(0.26458333,0,0,0.26458333,-254.75595,-218.47023)">
				<path
   d="m 810.5,1157.4 h 40.4 v 639.8 h -40.4 z"
   style="clip-rule:evenodd;fill:#a73a2b;fill-rule:evenodd"
   id="polygon1085" />

				<path
   fill-rule="evenodd"
   clip-rule="evenodd"
   fill="#762d26"
   d="m 810.5,1339.1 40.4,29.5 v -133 c -2,-5.4 -3.7,-8.3 -4.8,-7.7 -3.3,1.9 -18.9,8.8 -35.6,16 z"
   id="path1087" />

			</g>
      <g
         id="g1095"
         transform="matrix(0.26458333,0,0,0.26458333,-254.75595,-218.47023)">
				<path
   d="m 885.8,1178.4 h 34.6 v 602.8 h -34.6 z"
   style="clip-rule:evenodd;fill:#a73a2b;fill-rule:evenodd"
   id="polygon1091" />

				<path
   fill-rule="evenodd"
   clip-rule="evenodd"
   fill="#762d26"
   d="m 885.8,1333.7 34.5,25.2 v -113.6 c -1.8,-4.6 -3.2,-7.1 -4.1,-6.6 -2.9,1.6 -16.1,7.5 -30.4,13.6 z"
   id="path1093" />

			</g>
      <g
         id="g1101"
         transform="matrix(0.26458333,0,0,0.26458333,-254.75595,-218.47023)">
				<path
   d="m 1830.8,1178.4 h 34.6 v 602.8 h -34.6 z"
   style="clip-rule:evenodd;fill:#a73a2b;fill-rule:evenodd"
   id="polygon1097" />

				<path
   fill-rule="evenodd"
   clip-rule="evenodd"
   fill="#762d26"
   d="m 1830.8,1333.7 34.5,25.2 v -113.6 c -1.8,-4.6 -3.2,-7.1 -4.1,-6.6 -2.9,1.6 -16.1,7.5 -30.4,13.6 z"
   id="path1099" />

			</g>
      <g
         id="g1215"
         transform="matrix(0.26458333,0,0,0.26458333,-254.75595,-218.47023)">
				<path
   d="M 842.5,1091 H 707.8 L 842.5,915.4 h 1051 l 134.7,175.6 h -134.7 v 72.7 h -1051 z"
   style="clip-rule:evenodd;fill:#f75c31;fill-rule:evenodd"
   id="polygon1103" />

				<g
   id="g1131">
					<path
   d="m 1097.7,957.9 -149.9,-12.3 -75,145.4 h 164.3 z"
   style="fill:#f9e6c4"
   id="polygon1105" />

					<path
   d="m 1698,1091 -74.9,-145.4 -150,12.3 60.6,133.1 z"
   style="fill:#f9e6c4"
   id="polygon1107" />

					<path
   d="m 1204,982.70001 h 163.8 V 1091 H 1204 Z"
   style="fill:#f9e6c4"
   id="rect1109" />

					<path
   d="m 1862.9,1091 h 165.3 l -50.8,-66.2 -189.4,-50.3 z"
   style="fill:#f9e6c4"
   id="polygon1111" />

					<g
   id="g1129">
						<path
   d="m 1830.8,1041.2 -21,-32.7 h -154.3 l 16.8,32.7 z"
   style="clip-rule:evenodd;fill:#c63e1e;fill-rule:evenodd"
   id="polygon1113" />

						<path
   d="m 1204,1041.2 v -32.7 h -129.3 l -14.8,32.7 z"
   style="clip-rule:evenodd;fill:#c63e1e;fill-rule:evenodd"
   id="polygon1115" />

						<path
   d="m 1511,1041.2 -14.9,-32.7 h -128.3 v 32.7 z"
   style="clip-rule:evenodd;fill:#c63e1e;fill-rule:evenodd"
   id="polygon1117" />

						<path
   d="m 746.1,1041.2 h 152.4 l 16.9,-32.7 H 771.1 Z"
   style="clip-rule:evenodd;fill:#c63e1e;fill-rule:evenodd"
   id="polygon1119" />

						<path
   d="m 1059.9,1041.2 14.8,-32.7 H 915.4 l -16.9,32.7 z"
   style="fill:#d5b395"
   id="polygon1121" />

						<path
   d="m 1672.3,1041.2 -16.8,-32.7 h -159.4 l 14.9,32.7 z"
   style="fill:#d5b395"
   id="polygon1123" />

						<path
   d="m 1204,1008.5 h 163.8 v 32.7 H 1204 Z"
   style="fill:#d5b395"
   id="rect1125" />

						<path
   d="m 1809.8,1008.5 21,32.7 h 159.1 v 0 l -25.1,-32.7 h -48.9 z"
   style="fill:#d5b395"
   id="polygon1127" />

					</g>

				</g>

				<path
   fill-rule="evenodd"
   clip-rule="evenodd"
   fill="#c83e24"
   d="m 707.8,1091 h 1320.4 v 153.2 c 0,33.9 -36.9,61.4 -82.5,61.4 -45.6,0 -82.5,-27.5 -82.5,-61.4 0,33.9 -36.9,61.4 -82.5,61.4 -45.6,0 -82.5,-27.5 -82.5,-61.4 0,33.9 -36.9,61.4 -82.5,61.4 -45.6,0 -82.5,-27.5 -82.5,-61.4 0,33.9 -36.9,61.4 -82.5,61.4 -45.6,0 -82.5,-27.5 -82.5,-61.4 0,33.9 -36.9,61.4 -82.5,61.4 -45.6,0 -82.5,-27.5 -82.5,-61.4 0,33.9 -36.9,61.4 -82.5,61.4 -45.6,0 -82.5,-27.5 -82.5,-61.4 0,33.9 -36.9,61.4 -82.5,61.4 -45.6,0 -82.5,-27.5 -82.5,-61.4 0,33.9 -36.9,61.4 -82.5,61.4 -45.6,0 -82.5,-27.5 -82.5,-61.4 V 1091 Z"
   id="path1133" />

				<path
   d="M 783.70001,849.90002 H 1952.0001 V 996.00003 H 783.70001 Z"
   style="clip-rule:evenodd;fill:#db7453;fill-rule:evenodd"
   id="rect1135" />

				<path
   d="M 783.70001,845 H 1952.0001 v 9.9 H 783.70001 Z"
   style="clip-rule:evenodd;fill:#9a4337;fill-rule:evenodd"
   id="rect1137" />

				<path
   d="M 1977.4,1015.5 H 759.3 v -32.8 h 1218.1 z"
   style="clip-rule:evenodd;fill:#9a4337;fill-rule:evenodd"
   id="polygon1139" />

				<path
   d="M 1977.4,1024.8 H 759.3 v -32.7 h 1218.1 z"
   style="clip-rule:evenodd;fill:#b74e39;fill-rule:evenodd"
   id="polygon1141" />

				<path
   d="M 783.70001,688.20001 H 1952.0001 v 157.7 H 783.70001 Z"
   style="clip-rule:evenodd;fill:#db7453;fill-rule:evenodd"
   id="rect1143" />

				<path
   fill-rule="evenodd"
   clip-rule="evenodd"
   fill="#9a4337"
   d="m 810.6,819.7 c 0.2,4.1 -2.9,7.6 -7,7.8 -4.1,0.2 -7.6,-2.9 -7.8,-7 -0.2,-4.1 2.9,-7.6 7,-7.8 4.1,-0.3 7.6,2.9 7.8,7 z"
   id="path1145" />

				<path
   fill-rule="evenodd"
   clip-rule="evenodd"
   fill="#9a4337"
   d="m 810.6,711.4 c 0.2,4.1 -2.9,7.6 -7,7.8 -4.1,0.2 -7.6,-2.9 -7.8,-7 -0.2,-4.1 2.9,-7.6 7,-7.8 4.1,-0.2 7.6,2.9 7.8,7 z"
   id="path1147" />

				<path
   fill-rule="evenodd"
   clip-rule="evenodd"
   fill="#9a4337"
   d="m 1939.5,819.7 c 0.2,4.1 -2.9,7.6 -7,7.8 -4.1,0.2 -7.6,-2.9 -7.8,-7 -0.2,-4.1 2.9,-7.6 7,-7.8 4.1,-0.3 7.6,2.9 7.8,7 z"
   id="path1149" />

				<path
   fill-rule="evenodd"
   clip-rule="evenodd"
   fill="#9a4337"
   d="m 1939.5,711.4 c 0.2,4.1 -2.9,7.6 -7,7.8 -4.1,0.2 -7.6,-2.9 -7.8,-7 -0.2,-4.1 2.9,-7.6 7,-7.8 4.1,-0.2 7.6,2.9 7.8,7 z"
   id="path1151" />

				<path
   fill-rule="evenodd"
   clip-rule="evenodd"
   fill="#9a4337"
   d="m 1937.5,957.5 c 0.2,4.1 -2.9,7.6 -7,7.8 -4.1,0.2 -7.6,-2.9 -7.8,-7 -0.2,-4.1 2.9,-7.6 7,-7.8 4.1,-0.2 7.6,2.9 7.8,7 z"
   id="path1153" />

				<path
   fill-rule="evenodd"
   clip-rule="evenodd"
   fill="#9a4337"
   d="m 1937.5,873.3 c 0.2,4.1 -2.9,7.6 -7,7.8 -4.1,0.2 -7.6,-2.9 -7.8,-7 -0.2,-4.1 2.9,-7.6 7,-7.8 4.1,-0.2 7.6,2.9 7.8,7 z"
   id="path1155" />

				<path
   fill-rule="evenodd"
   clip-rule="evenodd"
   fill="#9a4337"
   d="m 808,957.5 c 0.2,4.1 -2.9,7.6 -7,7.8 -4.1,0.2 -7.6,-2.9 -7.8,-7 -0.2,-4.1 2.9,-7.6 7,-7.8 4,-0.2 7.5,2.9 7.8,7 z"
   id="path1157" />

				<path
   fill-rule="evenodd"
   clip-rule="evenodd"
   fill="#9a4337"
   d="m 808,873.3 c 0.2,4.1 -2.9,7.6 -7,7.8 -4.1,0.2 -7.6,-2.9 -7.8,-7 -0.2,-4.1 2.9,-7.6 7,-7.8 4,-0.2 7.5,2.9 7.8,7 z"
   id="path1159" />

				<g
   id="g1169">
					<path
   fill="#daac80"
   d="m 872.8,1091 v 153.2 c 0,33.9 36.9,61.4 82.5,61.4 41.9,0 76.4,-23.2 81.8,-53.2 V 1091 Z"
   id="path1161" />

					<path
   fill="#daac80"
   d="m 1204,1091 v 163.1 c 6.4,29.2 40.4,51.5 81.4,51.5 45.6,0 82.5,-27.5 82.5,-61.4 0,1.8 0.1,3.7 0.3,5.5 V 1091 Z"
   id="path1163" />

					<path
   fill="#daac80"
   d="m 1532.7,1091 v 158.3 c 0.2,-1.7 0.3,-3.4 0.3,-5.2 0,33.9 36.9,61.4 82.5,61.4 44.7,0 81.1,-26.5 82.5,-59.5 v -155 z"
   id="path1165" />

					<path
   fill="#daac80"
   d="m 1862.9,1091 v 157.7 c 0.1,-1.5 0.3,-3 0.3,-4.6 0,33.9 36.9,61.4 82.5,61.4 45.6,0 82.5,-27.5 82.5,-61.4 V 1091 Z"
   id="path1167" />

				</g>

				<path
   fill="#ec7f62"
   d="m 1717.9,932 h -326 c 2.4,-4.1 3.8,-8.9 3.8,-14.1 v 0 c 0,-15.3 -12.4,-27.7 -27.7,-27.7 H 866.5 c -15.3,0 -27.7,12.4 -27.7,27.7 v 0 c 0,15.3 12.4,27.7 27.7,27.7 h 276 c 0,7.5 6.1,13.6 13.6,13.6 h 561.8 c 7.5,0 13.6,-6.1 13.6,-13.6 v 0 c 0,-7.5 -6.1,-13.6 -13.6,-13.6 z"
   id="path1171" />

				<path
   fill-rule="evenodd"
   clip-rule="evenodd"
   fill="#b74e39"
   d="m 984,707.8 v 0 c 0,19.1 4.2,37.1 11.6,53.1 0.1,0.2 0.2,0.5 0.3,0.7 1.1,2.3 2.2,4.6 3.5,6.8 0.1,0.2 0.3,0.5 0.4,0.7 0.6,1 1.2,2.1 1.8,3.1 0,0.1 0.1,0.1 0.1,0.2 0.7,1.1 1.3,2.2 2,3.2 0.1,0.2 0.3,0.4 0.4,0.7 0.6,0.9 1.2,1.9 1.9,2.8 0.1,0.1 0.2,0.2 0.3,0.4 0.7,1 1.5,2 2.2,3 0.1,0.2 0.3,0.4 0.4,0.6 0.7,0.9 1.3,1.7 2,2.6 0.1,0.2 0.2,0.3 0.4,0.5 0.8,1 1.6,1.9 2.4,2.9 0.1,0.2 0.3,0.3 0.4,0.5 0.7,0.8 1.4,1.6 2.1,2.4 0.2,0.2 0.3,0.4 0.5,0.5 0.8,0.9 1.7,1.8 2.6,2.7 0.1,0.1 0.3,0.3 0.4,0.4 0.8,0.8 1.5,1.5 2.3,2.2 0.2,0.2 0.4,0.4 0.6,0.5 0.9,0.8 1.8,1.7 2.7,2.5 0.1,0.1 0.2,0.2 0.3,0.3 0.8,0.7 1.7,1.4 2.5,2.1 0.2,0.2 0.4,0.4 0.7,0.5 1,0.8 1.9,1.5 2.9,2.3 0.1,0 0.1,0.1 0.2,0.1 0.9,0.7 1.9,1.4 2.8,2 0.2,0.2 0.5,0.3 0.7,0.5 2,1.4 4,2.7 6.1,4 0.3,0.2 0.5,0.3 0.8,0.5 1,0.6 1.9,1.1 2.9,1.7 0.1,0.1 0.2,0.1 0.3,0.2 1.1,0.6 2.1,1.1 3.2,1.7 0.3,0.1 0.5,0.3 0.8,0.4 0.9,0.5 1.9,0.9 2.9,1.4 0.2,0.1 0.3,0.2 0.5,0.2 1.1,0.5 2.2,1 3.3,1.4 0.3,0.1 0.5,0.2 0.8,0.3 0.9,0.4 1.9,0.8 2.9,1.1 0.2,0.1 0.4,0.2 0.7,0.3 1.1,0.4 2.3,0.8 3.4,1.2 0.3,0.1 0.5,0.2 0.8,0.2 1,0.3 1.9,0.6 2.9,0.9 0.3,0.1 0.5,0.2 0.8,0.2 1.2,0.3 2.3,0.6 3.5,0.9 0.2,0.1 0.5,0.1 0.7,0.2 1,0.2 2,0.5 3,0.7 0.3,0.1 0.6,0.1 0.9,0.2 1.2,0.2 2.4,0.5 3.6,0.6 0.2,0 0.4,0.1 0.6,0.1 1.1,0.2 2.1,0.3 3.2,0.4 0.3,0 0.6,0.1 0.9,0.1 1.2,0.1 2.5,0.3 3.7,0.4 0.1,0 0.2,0 0.4,0 1.1,0.1 2.3,0.2 3.4,0.2 0.3,0 0.7,0 1,0 1.3,0 2.5,0.1 3.8,0.1 H 1675 c 62.4,0 113,-53.8 113,-120.3 v 0 0 c 0,-6.1 -1.7,-11.7 -4.7,-16.4 -0.2,-0.4 -0.5,-0.8 -0.8,-1.2 -0.2,-0.2 -0.3,-0.4 -0.5,-0.6 H 990 c -3.8,4.9 -6,11.2 -6,18.1 z"
   id="path1173" />

				<g
   id="g1213">
					<path
   fill-rule="evenodd"
   clip-rule="evenodd"
   fill="#b8472b"
   d="m 1014.3,672.4 h 720.2 c 8.9,0 16.2,-7.3 16.2,-16.2 v -87.8 c 0,-8.9 -7.3,-16.2 -16.2,-16.2 h -720.2 c -8.9,0 -16.2,7.3 -16.2,16.2 v 87.8 c 0,8.9 7.3,16.2 16.2,16.2 z"
   id="path1175" />

					<path
   fill-rule="evenodd"
   clip-rule="evenodd"
   fill="#d25131"
   d="M 998.1,568.4 V 626 c 77.1,15 182.7,24.2 299.1,24.2 236.1,0 427.5,-37.9 427.5,-84.7 0,-4.5 -1.8,-8.9 -5.2,-13.3 h -705.2 c -8.9,-0.1 -16.2,7.2 -16.2,16.2 z"
   id="path1177" />

					<g
   id="g1183">
						<path
   fill-rule="evenodd"
   clip-rule="evenodd"
   fill="#f8b748"
   d="m 1659.2,812.9 h -578.1 c -62.4,0 -113,-50.6 -113,-113 v 0 c 0,-15.2 12.4,-27.6 27.6,-27.6 h 748.8 c 15.2,0 27.6,12.4 27.6,27.6 v 0 c 0,62.5 -50.5,113 -112.9,113 z"
   id="path1179" />

						<path
   fill-rule="evenodd"
   clip-rule="evenodd"
   fill="#f9d96c"
   d="m 1744.5,672.4 h -77.9 c -31,32.1 -111,85.8 -298.8,85.8 -179.7,0 -318.1,-7 -389.6,-11.6 17.7,39.1 57.2,66.4 102.9,66.4 h 578.1 c 62.4,0 113,-50.6 113,-113 v 0 c -0.1,-15.3 -12.4,-27.6 -27.7,-27.6 z"
   id="path1181" />

					</g>

					<path
   fill-rule="evenodd"
   clip-rule="evenodd"
   fill="#f6f633"
   d="m 991.3,557.1 c 0,0 224,29.4 417.2,81.9 0,0 280.1,-51.1 328.2,-45 0,0 -2.9,-31.8 -51.2,-43.7 -95.9,-23.5 -319.3,-31.1 -694.2,6.8 z"
   id="path1185" />

					<path
   fill-rule="evenodd"
   clip-rule="evenodd"
   fill="#f6f695"
   d="m 1412.7,630.1 c -135.7,-36.9 -285.2,-63.3 -374.9,-77.6 -15.2,1.4 -30.7,2.9 -46.5,4.5 0,0 224,29.4 417.2,81.9 0,0 280.1,-51.1 328.2,-45 0,0 -0.5,-5.3 -4.3,-12.3 -98.9,8.2 -319.7,48.5 -319.7,48.5 z"
   id="path1187" />

					<path
   fill-rule="evenodd"
   clip-rule="evenodd"
   fill="#77c131"
   d="m 1015.9,511.8 c 0,0 -74.4,19.5 -60.6,35.5 13.9,16 46.7,8 88.3,19.5 41.6,11.5 20.2,36.6 66.9,33.2 13.9,-1 29.4,-3.8 40.2,-13.3 11.4,-10 12.1,-25.6 31.5,-25.8 19.5,-0.2 38.5,27 56,35.7 17.6,8.8 38.3,15.2 57.9,9.8 20.1,-5.5 24.5,-21.4 40.5,-33.2 50.4,-37.3 80.9,61.4 133.4,31.3 20.5,-11.7 35.7,-61.3 65.6,-37.8 18.9,14.9 27.8,64.1 71.9,38.9 44.2,-25.2 32.8,-46.9 60.5,-38.9 23.3,6.7 38,33.3 62.4,37.8 26,4.8 67.8,-19.3 55,-49.3 -15.1,-35.5 -41.6,-53.8 -41.6,-53.8 h -709.1 z"
   id="path1189" />

					<path
   fill-rule="evenodd"
   clip-rule="evenodd"
   fill="#f8b748"
   d="m 1779.3,475.2 c 1,2.8 1.6,5.9 1.6,9.1 V 502 c 0,14.6 -12,26.6 -26.6,26.6 H 981.9 c -14.6,0 -26.6,-12 -26.6,-26.6 v -17.8 c 0,-2.3 0.3,-4.6 0.9,-6.8 v 0 -0.1 l 0.1,-0.3 13.8,-49.5 v 0 c 20.5,-102.7 191.9,-182.9 400.4,-182.9 210,0 382.5,81.4 400.8,185.2 v -0.1 z"
   id="path1191" />

					<path
   fill-rule="evenodd"
   clip-rule="evenodd"
   fill="#f9d96c"
   d="m 1780.9,495.6 v 6.5 c 0,14.6 -12,26.6 -26.6,26.6 H 981.9 c -14.6,0 -26.6,-12 -26.6,-26.6 v -17.8 c 0,-1 0.1,-1.9 0.2,-2.8 6.6,11 17.2,24 21.6,25.7 0,0.5 759.7,-6.6 785.3,-7.7 6.9,-0.3 13,-1.8 18.5,-3.9 z"
   id="path1193" />

					<path
   fill-rule="evenodd"
   clip-rule="evenodd"
   fill="#f9f1d1"
   d="m 1149.7,341.2 c 10,-2.6 19,-1.4 20.1,2.7 1.1,4.1 -6.2,9.6 -16.2,12.2 -10,2.6 -19,1.4 -20.1,-2.7 -1.1,-4.1 6.1,-9.5 16.2,-12.2 z"
   id="path1195" />

					<path
   fill-rule="evenodd"
   clip-rule="evenodd"
   fill="#f9f1d1"
   d="m 1547.9,310.6 c 10,-2.6 19,-1.4 20.1,2.7 1.1,4.1 -6.2,9.6 -16.2,12.2 -10,2.6 -19,1.4 -20.1,-2.7 -1.1,-4.1 6.2,-9.6 16.2,-12.2 z"
   id="path1197" />

					<path
   fill-rule="evenodd"
   clip-rule="evenodd"
   fill="#f9f1d1"
   d="m 1254.9,379.2 c 9.9,3 17,8.7 15.8,12.8 -1.2,4.1 -10.3,5 -20.2,2.1 -9.9,-3 -17,-8.7 -15.8,-12.8 1.2,-4.1 10.2,-5 20.2,-2.1 z"
   id="path1199" />

					<path
   fill-rule="evenodd"
   clip-rule="evenodd"
   fill="#f9f1d1"
   d="m 1294.1,288.6 c 9.6,-4 18.6,-4.1 20.3,-0.1 1.7,3.9 -4.7,10.4 -14.3,14.4 -9.6,4 -18.6,4.1 -20.3,0.1 -1.7,-4 4.7,-10.4 14.3,-14.4 z"
   id="path1201" />

					<path
   fill-rule="evenodd"
   clip-rule="evenodd"
   fill="#f9f1d1"
   d="m 1423.1,370.4 c 9.6,-4 18.6,-4.1 20.3,-0.1 1.7,3.9 -4.7,10.4 -14.3,14.4 -9.6,4 -18.6,4.1 -20.3,0.1 -1.7,-4 4.7,-10.4 14.3,-14.4 z"
   id="path1203" />

					<path
   fill-rule="evenodd"
   clip-rule="evenodd"
   fill="#f9f1d1"
   d="m 1340.9,342.6 c 8.1,6.4 12.6,14.3 10,17.7 -2.6,3.4 -11.4,0.9 -19.5,-5.5 -8.1,-6.4 -12.6,-14.3 -10,-17.7 2.6,-3.3 11.4,-0.9 19.5,5.5 z"
   id="path1205" />

					<path
   fill-rule="evenodd"
   clip-rule="evenodd"
   fill="#f9f1d1"
   d="m 1461,292.2 c 10.1,2.4 17.5,7.7 16.5,11.8 -1,4.2 -9.9,5.6 -20,3.3 -10.1,-2.4 -17.5,-7.7 -16.5,-11.8 0.9,-4.2 9.9,-5.7 20,-3.3 z"
   id="path1207" />

					<path
   fill-rule="evenodd"
   clip-rule="evenodd"
   fill="#f9f1d1"
   d="m 1198.1,288.6 c 10.2,-1.6 19.1,0.6 19.7,4.8 0.7,4.2 -7.1,8.9 -17.4,10.5 -10.2,1.6 -19.1,-0.6 -19.7,-4.8 -0.6,-4.2 7.1,-8.9 17.4,-10.5 z"
   id="path1209" />

					<path
   fill-rule="evenodd"
   clip-rule="evenodd"
   fill="#f9f1d1"
   d="m 1372.5,272.6 c 9,5.2 14.5,12.4 12.4,16.1 -2.1,3.7 -11.1,2.5 -20.1,-2.6 -9,-5.2 -14.5,-12.4 -12.4,-16.1 2.1,-3.8 11.1,-2.6 20.1,2.6 z"
   id="path1211" />

				</g>

			</g>
      <path
         fill="#ec7f62"
         d="m -13.905745,298.07581 v 11.03312 c -1.084791,-0.635 -2.354791,-1.00542 -3.730625,-1.00542 v 0 c -4.048125,0 -7.328958,3.28084 -7.328958,7.32896 v 57.89083 c 0,4.04813 3.280833,7.32896 7.328958,7.32896 v 0 c 4.048125,0 7.328959,-3.28083 7.328959,-7.32896 v -26.2202 c 1.9843746,0 3.5983329,-1.61396 3.5983329,-3.59834 v -45.42895 c 0,-1.98438 -1.6139583,-3.59834 -3.5983329,-3.59834 v 0 c -1.957917,0 -3.598334,1.61396 -3.598334,3.59834 z"
         id="path1217"
         style="stroke-width:0.264583" />
      <path
         fill="#ec7f62"
         d="m 235.70217,300.58935 v 0 c -3.33375,0 -6.05896,2.69875 -6.05896,6.05896 v 7.85812 c -0.89958,-0.55563 -1.95792,-0.84667 -3.09562,-0.84667 v 0 c -3.33375,0 -6.05896,2.69875 -6.05896,6.05896 v 21.64292 c -1.64042,0 -2.98979,1.32291 -2.98979,2.98979 v 37.51792 c 0,1.64041 1.32291,2.98979 2.98979,2.98979 1.64041,0 2.98979,-1.32292 2.98979,-2.98979 v -9.12813 c 0.89958,0.52917 1.95792,0.84667 3.06917,0.84667 v 0 c 1.905,0 3.62479,-0.89959 4.73604,-2.27542 0.82021,-0.52917 1.34937,-1.45521 1.34937,-2.48708 v -9.12813 c 0.89959,0.52917 1.95792,0.84667 3.06917,0.84667 v 0 c 3.33375,0 6.05896,-2.69875 6.05896,-6.05896 v -47.78375 c 0,-3.38666 -2.69875,-6.11187 -6.05896,-6.11187 z"
         id="path1219"
         style="stroke-width:0.264583" />
      <g
         id="g1235"
         transform="matrix(0.26458333,0,0,0.26458333,-254.75595,-218.47023)">
				<path
   fill="#f75c31"
   d="m 991.8,1614.3 c -0.4,-3.1 -3,-5.4 -6.1,-5.4 -3.1,0 -5.7,2.3 -6.1,5.4 l -3.7,29.7 h 19.6 z"
   id="path1221" />

				<path
   fill="#f75c31"
   d="m 1010.9,1655.9 h -48.4 c -6.1,0 -11,4.9 -11,11 v 122.5 c 0,6.1 4.9,11 11,11 h 48.4 c 6.1,0 11,-4.9 11,-11 v -122.5 c -0.1,-6.1 -5,-11 -11,-11 z"
   id="path1223" />

				<path
   fill="#c83e24"
   d="m 1004.4,1644.1 h -36.1 c -4,0 -7.3,3.3 -7.3,7.3 v 4.5 h 50.8 v -4.5 c -0.1,-4.1 -3.3,-7.3 -7.4,-7.3 z"
   id="path1225" />

				<path
   fill="#c83e24"
   d="M 1011.7,1655.9 V 1772 c 0,6.1 -4.9,11 -11,11 h -48.4 c -0.3,0 -0.6,0 -0.9,0 v 6.5 c 0,6.1 4.9,11 11,11 h 48.4 c 6.1,0 11,-4.9 11,-11 V 1667 c 0,-5.9 -4.4,-10.6 -10.1,-11.1 z"
   id="path1227" />

				<g
   id="g1233">
					<path
   d="M 957.59998,1701.7 H 1015.2 v 52.8 h -57.60002 z"
   style="fill:#f9e6c4"
   id="rect1229" />

					<path
   d="m 957.6,1745.8 v 8.7 h 57.6 v -52.8 h -6.1 v 44.1 z"
   style="fill:#daac80"
   id="polygon1231" />

				</g>

			</g>
      <g
         id="g1251"
         transform="matrix(0.26458333,0,0,0.26458333,-254.75595,-218.47023)">
				<path
   fill="#fed529"
   d="m 1077.4,1614.3 c -0.4,-3.1 -3,-5.4 -6.1,-5.4 -3.1,0 -5.7,2.3 -6.1,5.4 l -3.7,29.7 h 19.6 z"
   id="path1237" />

				<path
   fill="#fed529"
   d="m 1096.5,1655.9 h -48.4 c -6.1,0 -11,4.9 -11,11 v 122.5 c 0,6.1 4.9,11 11,11 h 48.4 c 6.1,0 11,-4.9 11,-11 v -122.5 c -0.1,-6.1 -5,-11 -11,-11 z"
   id="path1239" />

				<path
   fill="#feb719"
   d="m 1090,1644.1 h -36.1 c -4,0 -7.3,3.3 -7.3,7.3 v 4.5 h 50.8 v -4.5 c 0,-4.1 -3.3,-7.3 -7.4,-7.3 z"
   id="path1241" />

				<path
   fill="#feb719"
   d="M 1097.4,1655.9 V 1772 c 0,6.1 -4.9,11 -11,11 H 1038 c -0.3,0 -0.6,0 -0.9,0 v 6.5 c 0,6.1 4.9,11 11,11 h 48.4 c 6.1,0 11,-4.9 11,-11 V 1667 c -0.1,-5.9 -4.5,-10.6 -10.1,-11.1 z"
   id="path1243" />

				<g
   id="g1249">
					<path
   d="m 1043.2,1701.7 h 57.5999 v 52.8 H 1043.2 Z"
   style="fill:#f9e6c4"
   id="rect1245" />

					<path
   d="m 1043.2,1745.8 v 8.7 h 57.6 v -52.8 h -6.1 v 44.1 z"
   style="fill:#daac80"
   id="polygon1247" />

				</g>

			</g>
      <g
         id="g1267"
         transform="matrix(0.26458333,0,0,0.26458333,-254.75595,-218.47023)">
				<path
   fill="#a7b74e"
   d="m 1172.2,1614.3 c -0.4,-3.1 -3,-5.4 -6.1,-5.4 -3.1,0 -5.7,2.3 -6.1,5.4 l -3.7,29.7 h 19.6 z"
   id="path1253" />

				<path
   fill="#a7b74e"
   d="m 1191.3,1655.9 h -48.4 c -6.1,0 -11,4.9 -11,11 v 122.5 c 0,6.1 4.9,11 11,11 h 48.4 c 6.1,0 11,-4.9 11,-11 v -122.5 c 0,-6.1 -4.9,-11 -11,-11 z"
   id="path1255" />

				<path
   fill="#849b32"
   d="m 1184.9,1644.1 h -36.1 c -4,0 -7.3,3.3 -7.3,7.3 v 4.5 h 50.8 v -4.5 c -0.1,-4.1 -3.4,-7.3 -7.4,-7.3 z"
   id="path1257" />

				<path
   fill="#849b32"
   d="M 1192.2,1655.9 V 1772 c 0,6.1 -4.9,11 -11,11 h -48.4 c -0.3,0 -0.6,0 -0.9,0 v 6.5 c 0,6.1 4.9,11 11,11 h 48.4 c 6.1,0 11,-4.9 11,-11 V 1667 c 0,-5.9 -4.5,-10.6 -10.1,-11.1 z"
   id="path1259" />

				<g
   id="g1265">
					<path
   d="m 1138,1701.7 h 57.6 v 52.8 H 1138 Z"
   style="fill:#f9e6c4"
   id="rect1261" />

					<path
   d="m 1138,1745.8 v 8.7 h 57.6 v -52.8 h -6 v 44.1 z"
   style="fill:#daac80"
   id="polygon1263" />

				</g>

			</g>
      <g
         id="g1359"
         transform="matrix(0.26458333,0,0,0.26458333,-254.75595,-218.47023)">
				<path
   d="m 1478.5,1763.2 h 350 v 29.8 h -350 z"
   style="fill:#f9e6c4"
   id="rect1269" />

				<g
   id="g1309">
					<path
   fill-rule="evenodd"
   clip-rule="evenodd"
   fill="#b8472b"
   d="m 1516.4,1741.8 h 114.9 c 1.4,0 2.6,-1.2 2.6,-2.6 v -14 c 0,-1.4 -1.2,-2.6 -2.6,-2.6 h -114.9 c -1.4,0 -2.6,1.2 -2.6,2.6 v 14 c 0,1.4 1.2,2.6 2.6,2.6 z"
   id="path1271" />

					<path
   fill-rule="evenodd"
   clip-rule="evenodd"
   fill="#d25131"
   d="m 1513.8,1725.2 v 9.2 c 12.3,2.4 29.1,3.9 47.7,3.9 37.7,0 68.2,-6.1 68.2,-13.5 0,-0.7 -0.3,-1.4 -0.8,-2.1 h -112.5 c -1.4,-0.1 -2.6,1 -2.6,2.5 z"
   id="path1273" />

					<g
   id="g1279">
						<path
   fill-rule="evenodd"
   clip-rule="evenodd"
   fill="#f8b748"
   d="M 1619.3,1764.2 H 1527 c -10,0 -18,-8.1 -18,-18 v 0 c 0,-2.4 2,-4.4 4.4,-4.4 h 119.5 c 2.4,0 4.4,2 4.4,4.4 v 0 c 0,9.9 -8.1,18 -18,18 z"
   id="path1275" />

						<path
   fill-rule="evenodd"
   clip-rule="evenodd"
   fill="#f9d96c"
   d="m 1632.9,1741.8 h -12.4 c -5,5.1 -17.7,13.7 -47.7,13.7 -28.7,0 -50.8,-1.1 -62.2,-1.8 2.8,6.2 9.1,10.6 16.4,10.6 h 92.2 c 10,0 18,-8.1 18,-18 v 0 c 0.1,-2.6 -1.9,-4.5 -4.3,-4.5 z"
   id="path1277" />

					</g>

					<path
   fill-rule="evenodd"
   clip-rule="evenodd"
   fill="#f6f633"
   d="m 1512.7,1723.4 c 0,0 35.7,4.7 66.6,13.1 0,0 44.7,-8.2 52.4,-7.2 0,0 -0.5,-5.1 -8.2,-7 -15.3,-3.8 -51,-5 -110.8,1.1 z"
   id="path1281" />

					<path
   fill-rule="evenodd"
   clip-rule="evenodd"
   fill="#f6f695"
   d="m 1580,1735 c -21.6,-5.9 -45.5,-10.1 -59.8,-12.4 -2.4,0.2 -4.9,0.5 -7.4,0.7 0,0 35.7,4.7 66.6,13.1 0,0 44.7,-8.2 52.4,-7.2 0,0 -0.1,-0.8 -0.7,-2 -15.9,1.4 -51.1,7.8 -51.1,7.8 z"
   id="path1283" />

					<path
   fill-rule="evenodd"
   clip-rule="evenodd"
   fill="#77c131"
   d="m 1516.6,1716.1 c 0,0 -11.9,3.1 -9.7,5.7 2.2,2.6 7.4,1.3 14.1,3.1 6.6,1.8 3.2,5.8 10.7,5.3 2.2,-0.2 4.7,-0.6 6.4,-2.1 1.8,-1.6 1.9,-4.1 5,-4.1 3.1,0 6.1,4.3 8.9,5.7 2.8,1.4 6.1,2.4 9.2,1.6 3.2,-0.9 3.9,-3.4 6.5,-5.3 8,-6 12.9,9.8 21.3,5 3.3,-1.9 5.7,-9.8 10.5,-6 3,2.4 4.4,10.2 11.5,6.2 7,-4 5.2,-7.5 9.7,-6.2 3.7,1.1 6.1,5.3 10,6 4.2,0.8 10.8,-3.1 8.8,-7.9 -2.4,-5.7 -6.6,-8.6 -6.6,-8.6 h -113.1 z"
   id="path1285" />

					<path
   fill-rule="evenodd"
   clip-rule="evenodd"
   fill="#f8b748"
   d="m 1638.4,1710.3 c 0.2,0.5 0.3,0.9 0.3,1.4 v 2.8 c 0,2.3 -1.9,4.2 -4.2,4.2 h -123.2 c -2.3,0 -4.2,-1.9 -4.2,-4.2 v -2.8 c 0,-0.4 0,-0.7 0.1,-1.1 v 0 0 -0.1 l 2.2,-7.9 v 0 c 3.3,-16.4 30.6,-29.2 63.9,-29.2 33.5,0 61,13 63.9,29.6 v 0 z"
   id="path1287" />

					<path
   fill-rule="evenodd"
   clip-rule="evenodd"
   fill="#f9d96c"
   d="m 1638.7,1713.6 v 1 c 0,2.3 -1.9,4.2 -4.2,4.2 h -123.2 c -2.3,0 -4.2,-1.9 -4.2,-4.2 v -2.8 c 0,-0.2 0,-0.3 0,-0.5 1.1,1.8 2.7,3.8 3.4,4.1 0,0.1 121.2,-1.1 125.3,-1.2 1,-0.1 2,-0.3 2.9,-0.6 z"
   id="path1289" />

					<path
   fill-rule="evenodd"
   clip-rule="evenodd"
   fill="#f9f1d1"
   d="m 1538,1688.9 c 1.6,-0.4 3,-0.2 3.2,0.4 0.2,0.7 -1,1.5 -2.6,2 -1.6,0.4 -3,0.2 -3.2,-0.4 -0.2,-0.7 1,-1.6 2.6,-2 z"
   id="path1291" />

					<path
   fill-rule="evenodd"
   clip-rule="evenodd"
   fill="#f9f1d1"
   d="m 1601.5,1684 c 1.6,-0.4 3,-0.2 3.2,0.4 0.2,0.7 -1,1.5 -2.6,2 -1.6,0.4 -3,0.2 -3.2,-0.4 -0.1,-0.7 1,-1.5 2.6,-2 z"
   id="path1293" />

					<path
   fill-rule="evenodd"
   clip-rule="evenodd"
   fill="#f9f1d1"
   d="m 1554.8,1695 c 1.6,0.5 2.7,1.4 2.5,2 -0.2,0.7 -1.6,0.8 -3.2,0.3 -1.6,-0.5 -2.7,-1.4 -2.5,-2 0.1,-0.6 1.6,-0.8 3.2,-0.3 z"
   id="path1295" />

					<path
   fill-rule="evenodd"
   clip-rule="evenodd"
   fill="#f9f1d1"
   d="m 1561,1680.5 c 1.5,-0.6 3,-0.6 3.2,0 0.3,0.6 -0.8,1.7 -2.3,2.3 -1.5,0.6 -3,0.6 -3.2,0 -0.2,-0.6 0.8,-1.6 2.3,-2.3 z"
   id="path1297" />

					<path
   fill-rule="evenodd"
   clip-rule="evenodd"
   fill="#f9f1d1"
   d="m 1581.6,1693.6 c 1.5,-0.6 3,-0.6 3.2,0 0.3,0.6 -0.8,1.7 -2.3,2.3 -1.5,0.6 -3,0.6 -3.2,0 -0.2,-0.6 0.8,-1.7 2.3,-2.3 z"
   id="path1299" />

					<path
   fill-rule="evenodd"
   clip-rule="evenodd"
   fill="#f9f1d1"
   d="m 1568.5,1689.2 c 1.3,1 2,2.3 1.6,2.8 -0.4,0.5 -1.8,0.1 -3.1,-0.9 -1.3,-1 -2,-2.3 -1.6,-2.8 0.4,-0.5 1.8,-0.2 3.1,0.9 z"
   id="path1301" />

					<path
   fill-rule="evenodd"
   clip-rule="evenodd"
   fill="#f9f1d1"
   d="m 1587.7,1681.1 c 1.6,0.4 2.8,1.2 2.6,1.9 -0.2,0.7 -1.6,0.9 -3.2,0.5 -1.6,-0.4 -2.8,-1.2 -2.6,-1.9 0.1,-0.6 1.5,-0.9 3.2,-0.5 z"
   id="path1303" />

					<path
   fill-rule="evenodd"
   clip-rule="evenodd"
   fill="#f9f1d1"
   d="m 1545.7,1680.5 c 1.6,-0.3 3,0.1 3.1,0.8 0.1,0.7 -1.1,1.4 -2.8,1.7 -1.6,0.3 -3,-0.1 -3.1,-0.8 -0.1,-0.7 1.2,-1.4 2.8,-1.7 z"
   id="path1305" />

					<path
   fill-rule="evenodd"
   clip-rule="evenodd"
   fill="#f9f1d1"
   d="m 1573.5,1678 c 1.4,0.8 2.3,2 2,2.6 -0.3,0.6 -1.8,0.4 -3.2,-0.4 -1.4,-0.8 -2.3,-2 -2,-2.6 0.4,-0.6 1.8,-0.5 3.2,0.4 z"
   id="path1307" />

				</g>

				<g
   id="g1349">
					<path
   fill-rule="evenodd"
   clip-rule="evenodd"
   fill="#b8472b"
   d="m 1672.4,1741.7 h 114.9 c 1.4,0 2.6,-1.2 2.6,-2.6 v -14 c 0,-1.4 -1.2,-2.6 -2.6,-2.6 h -114.9 c -1.4,0 -2.6,1.2 -2.6,2.6 v 14 c 0,1.5 1.2,2.6 2.6,2.6 z"
   id="path1311" />

					<path
   fill-rule="evenodd"
   clip-rule="evenodd"
   fill="#d25131"
   d="m 1669.8,1725.1 v 9.2 c 12.3,2.4 29.1,3.9 47.7,3.9 37.7,0 68.2,-6.1 68.2,-13.5 0,-0.7 -0.3,-1.4 -0.8,-2.1 h -112.5 c -1.4,0 -2.6,1.1 -2.6,2.5 z"
   id="path1313" />

					<g
   id="g1319">
						<path
   fill-rule="evenodd"
   clip-rule="evenodd"
   fill="#f8b748"
   d="m 1775.3,1764.2 h -92.2 c -10,0 -18,-8.1 -18,-18 v 0 c 0,-2.4 2,-4.4 4.4,-4.4 H 1789 c 2.4,0 4.4,2 4.4,4.4 v 0 c -0.1,9.9 -8.1,18 -18.1,18 z"
   id="path1315" />

						<path
   fill-rule="evenodd"
   clip-rule="evenodd"
   fill="#f9d96c"
   d="m 1788.9,1741.7 h -12.4 c -5,5.1 -17.7,13.7 -47.7,13.7 -28.7,0 -50.8,-1.1 -62.2,-1.8 2.8,6.2 9.1,10.6 16.4,10.6 h 92.2 c 10,0 18,-8.1 18,-18 v 0 c 0.1,-2.5 -1.8,-4.5 -4.3,-4.5 z"
   id="path1317" />

					</g>

					<path
   fill-rule="evenodd"
   clip-rule="evenodd"
   fill="#f6f633"
   d="m 1668.7,1723.3 c 0,0 35.7,4.7 66.6,13.1 0,0 44.7,-8.2 52.4,-7.2 0,0 -0.5,-5.1 -8.2,-7 -15.3,-3.7 -50.9,-4.9 -110.8,1.1 z"
   id="path1321" />

					<path
   fill-rule="evenodd"
   clip-rule="evenodd"
   fill="#f6f695"
   d="m 1736,1735 c -21.6,-5.9 -45.5,-10.1 -59.8,-12.4 -2.4,0.2 -4.9,0.5 -7.4,0.7 0,0 35.7,4.7 66.6,13.1 0,0 44.7,-8.2 52.4,-7.2 0,0 -0.1,-0.8 -0.7,-2 -15.9,1.4 -51.1,7.8 -51.1,7.8 z"
   id="path1323" />

					<path
   fill-rule="evenodd"
   clip-rule="evenodd"
   fill="#77c131"
   d="m 1672.7,1716.1 c 0,0 -11.9,3.1 -9.7,5.7 2.2,2.6 7.4,1.3 14.1,3.1 6.6,1.8 3.2,5.8 10.7,5.3 2.2,-0.2 4.7,-0.6 6.4,-2.1 1.8,-1.6 1.9,-4.1 5,-4.1 3.1,0 6.1,4.3 8.9,5.7 2.8,1.4 6.1,2.4 9.2,1.6 3.2,-0.9 3.9,-3.4 6.5,-5.3 8,-6 12.9,9.8 21.3,5 3.3,-1.9 5.7,-9.8 10.5,-6 3,2.4 4.4,10.2 11.5,6.2 7,-4 5.2,-7.5 9.7,-6.2 3.7,1.1 6.1,5.3 10,6 4.2,0.8 10.8,-3.1 8.8,-7.9 -2.4,-5.7 -6.6,-8.6 -6.6,-8.6 h -113.1 z"
   id="path1325" />

					<path
   fill-rule="evenodd"
   clip-rule="evenodd"
   fill="#f8b748"
   d="m 1794.5,1710.3 c 0.2,0.5 0.3,0.9 0.3,1.4 v 2.8 c 0,2.3 -1.9,4.2 -4.2,4.2 h -123.2 c -2.3,0 -4.2,-1.9 -4.2,-4.2 v -2.8 c 0,-0.4 0,-0.7 0.1,-1.1 v 0 0 -0.1 l 2.2,-7.9 v 0 c 3.3,-16.4 30.6,-29.2 63.9,-29.2 33.5,0 61,13 63.9,29.6 v 0 z"
   id="path1327" />

					<path
   fill-rule="evenodd"
   clip-rule="evenodd"
   fill="#f9d96c"
   d="m 1794.7,1713.5 v 1 c 0,2.3 -1.9,4.2 -4.2,4.2 h -123.2 c -2.3,0 -4.2,-1.9 -4.2,-4.2 v -2.8 c 0,-0.2 0,-0.3 0,-0.5 1.1,1.8 2.7,3.8 3.4,4.1 0,0.1 121.2,-1.1 125.3,-1.2 1.1,0 2.1,-0.2 2.9,-0.6 z"
   id="path1329" />

					<path
   fill-rule="evenodd"
   clip-rule="evenodd"
   fill="#f9f1d1"
   d="m 1694,1688.9 c 1.6,-0.4 3,-0.2 3.2,0.4 0.2,0.7 -1,1.5 -2.6,2 -1.6,0.5 -3,0.2 -3.2,-0.4 -0.1,-0.7 1,-1.6 2.6,-2 z"
   id="path1331" />

					<path
   fill-rule="evenodd"
   clip-rule="evenodd"
   fill="#f9f1d1"
   d="m 1757.6,1684 c 1.6,-0.4 3,-0.2 3.2,0.4 0.2,0.7 -1,1.5 -2.6,2 -1.6,0.5 -3,0.2 -3.2,-0.4 -0.2,-0.7 1,-1.6 2.6,-2 z"
   id="path1333" />

					<path
   fill-rule="evenodd"
   clip-rule="evenodd"
   fill="#f9f1d1"
   d="m 1710.8,1695 c 1.6,0.5 2.7,1.4 2.5,2 -0.2,0.7 -1.6,0.8 -3.2,0.3 -1.6,-0.5 -2.7,-1.4 -2.5,-2 0.2,-0.7 1.6,-0.8 3.2,-0.3 z"
   id="path1335" />

					<path
   fill-rule="evenodd"
   clip-rule="evenodd"
   fill="#f9f1d1"
   d="m 1717.1,1680.5 c 1.5,-0.6 3,-0.6 3.2,0 0.3,0.6 -0.8,1.7 -2.3,2.3 -1.5,0.6 -3,0.6 -3.2,0 -0.3,-0.6 0.7,-1.7 2.3,-2.3 z"
   id="path1337" />

					<path
   fill-rule="evenodd"
   clip-rule="evenodd"
   fill="#f9f1d1"
   d="m 1737.6,1693.6 c 1.5,-0.6 3,-0.6 3.2,0 0.3,0.6 -0.8,1.7 -2.3,2.3 -1.5,0.6 -3,0.6 -3.2,0 -0.2,-0.6 0.8,-1.7 2.3,-2.3 z"
   id="path1339" />

					<path
   fill-rule="evenodd"
   clip-rule="evenodd"
   fill="#f9f1d1"
   d="m 1724.5,1689.1 c 1.3,1 2,2.3 1.6,2.8 -0.4,0.5 -1.8,0.1 -3.1,-0.9 -1.3,-1 -2,-2.3 -1.6,-2.8 0.4,-0.5 1.8,-0.1 3.1,0.9 z"
   id="path1341" />

					<path
   fill-rule="evenodd"
   clip-rule="evenodd"
   fill="#f9f1d1"
   d="m 1743.7,1681.1 c 1.6,0.4 2.8,1.2 2.6,1.9 -0.2,0.7 -1.6,0.9 -3.2,0.5 -1.6,-0.4 -2.8,-1.2 -2.6,-1.9 0.1,-0.7 1.6,-0.9 3.2,-0.5 z"
   id="path1343" />

					<path
   fill-rule="evenodd"
   clip-rule="evenodd"
   fill="#f9f1d1"
   d="m 1701.7,1680.5 c 1.6,-0.3 3,0.1 3.1,0.8 0.1,0.7 -1.1,1.4 -2.8,1.7 -1.6,0.3 -3,-0.1 -3.1,-0.8 0,-0.7 1.2,-1.4 2.8,-1.7 z"
   id="path1345" />

					<path
   fill-rule="evenodd"
   clip-rule="evenodd"
   fill="#f9f1d1"
   d="m 1729.6,1678 c 1.4,0.8 2.3,2 2,2.6 -0.3,0.6 -1.8,0.4 -3.2,-0.4 -1.4,-0.8 -2.3,-2 -2,-2.6 0.3,-0.7 1.7,-0.5 3.2,0.4 z"
   id="path1347" />

				</g>

				
					<path
   d="m 1486.3,1629.8 h 328.1001 v 133.4 H 1486.3 Z"
   style="clip-rule:evenodd;fill:#ffffff;fill-rule:evenodd"
   id="rect1351" />

				<g
   id="g1357">
					<path
   d="m 1596.5,1629.8 h 38.9 l -62.1,133.4 h -39 z"
   style="clip-rule:evenodd;fill:#ffffff;fill-rule:evenodd"
   id="polygon1353" />

					<path
   d="m 1649.6,1629.8 h 22.4 l -62.1,133.4 h -22.4 z"
   style="clip-rule:evenodd;fill:#ffffff;fill-rule:evenodd"
   id="polygon1355" />

				</g>

			</g>
    </g>
  </g>
</svg>
