<?xml version="1.0" encoding="UTF-8"?>
<svg width="253.33mm" height="191.62mm" version="1.1" viewBox="0 0 253.33 191.62" xmlns="http://www.w3.org/2000/svg" xmlns:cc="http://creativecommons.org/ns#" xmlns:dc="http://purl.org/dc/elements/1.1/" xmlns:rdf="http://www.w3.org/1999/02/22-rdf-syntax-ns#">
 <metadata>
  <rdf:RDF>
   <cc:Work rdf:about="">
    <dc:format>image/svg+xml</dc:format>
    <dc:type rdf:resource="http://purl.org/dc/dcmitype/StillImage"/>
    <dc:title/>
   </cc:Work>
  </rdf:RDF>
 </metadata>
 <g transform="translate(58.896 -39.796)">
  <g transform="matrix(.45836 0 0 .42003 -32.247 -256.66)">
   <path transform="translate(254.76 218.47)" d="m-16.156 642.94c2.4018-45.678 83.861-104.49 61.317-122.76-56.344-45.673-310.16 60.403-304.76 177.91 1.8604 40.521 97.401 14.389 110.27 51.462 9.3845 48.425-58.325 126.74-30.954 158.7 68.342 71.258 209.26 24.497 261.22-51.084 51.967-75.581 69.676-179.32 27.922-174.12-41.754 5.1943-79.877 20.896-110.01-6.9e-4 -11.729-8.1333-15.76-25.848-15.01-40.101z" style="fill-rule:evenodd;fill:#b1dde9"/>
   <path transform="translate(254.76 218.47)" d="m-165.34 782.57c2.494-0.95811 4.0313-8.0225-2.2398-6.6276-42.393 9.4299-72.99 54.528-77.214 75.707-1.568 7.8633 15.292 10.209 23.387 8.436 11.803-2.5854 20.737-63.943 56.066-77.515z" style="fill:#b1dde9;paint-order:markers stroke fill;stroke-linecap:round;stroke-width:6.665"/>
   <path transform="translate(254.76 218.47)" d="m67.724 619.02c-3.5556 1.4843-7.5993 14.225-2.0206 12.313 48.82-16.734 131.54 0.65245 156.8-16.515 9.3774-6.3738 24.14-18.778 13.7-24.314-15.22-8.0712-114.18 5.8482-168.48 28.516z" style="fill:#b1dde9;paint-order:markers stroke fill;stroke-linecap:round;stroke-width:9.2971"/>
   <ellipse transform="translate(254.76 218.47)" cx="121.52" cy="648.61" rx="15.686" ry="10.205" style="fill:#b1dde9;paint-order:markers stroke fill"/>
   <ellipse transform="translate(254.76 218.47)" cx="155.73" cy="574.33" rx="7.1815" ry="5.8586" style="fill:#b1dde9;paint-order:markers stroke fill"/>
   <ellipse transform="translate(254.76 218.47)" cx="56.318" cy="573.58" rx="6.4256" ry="5.4807" style="fill:#b1dde9;paint-order:markers stroke fill"/>
   <path transform="translate(254.76 218.47)" d="m-186.84 752.81c2.6146-0.54928 15.406-12.432 0.51034-9.8462-75.559 13.118-103.66-38.519-123.15-29.205-7.2341 3.4579-1.666 21.589 4.6056 27.007 9.1438 7.8982 87.879 18.379 118.03 12.045z" style="fill:#b1dde9;paint-order:markers stroke fill;stroke-linecap:round;stroke-width:6.665"/>
   <circle transform="translate(254.76 218.47)" cx="-244.33" cy="780.32" r="8.8199" style="fill:#b1dde9;paint-order:markers stroke fill"/>
   <ellipse transform="translate(254.76 218.47)" cx="-211.46" cy="735.15" rx="3.7418" ry="3.2072" style="fill:#b1dde9;paint-order:markers stroke fill"/>
   <ellipse transform="translate(254.76 218.47)" cx="-177.52" cy="819.6" rx="3.4745" ry="3.2072" style="fill:#b1dde9;paint-order:markers stroke fill"/>
   <ellipse transform="translate(254.76 218.47)" cx="-152.93" cy="757.06" rx="2.94" ry="3.2072" style="fill:#b1dde9;paint-order:markers stroke fill"/>
   <ellipse transform="translate(254.76 218.47)" cx="52.871" cy="658.17" rx="5.6127" ry="3.7418" style="fill:#b1dde9;paint-order:markers stroke fill"/>
   <path transform="translate(254.76 218.47)" d="m69.659 589.25c-2.2906 1.3617-3.3908 10.316 2.4178 8.1636 39.266-14.552 65.763-73.055 68.7-99.876 1.0904-9.958-14.819-11.813-22.319-9.0681-10.934 4.0014-16.35 81.491-48.799 100.78z" style="fill:#b1dde9;paint-order:markers stroke fill;stroke-linecap:round;stroke-width:7.2327"/>
   <path d="m110.51 802.34c2.2354-1.4632 2.8751-10.37-2.9958-7.7615-41.637 18.501-69.967 62.465-74.19 83.644-1.568 7.8633 23.403-4.3772 25.655-12.353 4.9993-17.704 18.091-41.642 51.531-63.53z" style="fill:#ffffff;paint-order:markers stroke fill;stroke-linecap:round;stroke-width:6.665"/>
   <path d="m58.235 779.07c2.2354-1.4632 2.8751-10.37-2.9958-7.7615-41.637 18.501-69.967 62.465-74.19 83.644-1.568 7.8633 23.403-4.3772 25.655-12.353 4.9993-17.704 18.091-41.642 51.531-63.53z" style="fill:#ffffff;paint-order:markers stroke fill;stroke-linecap:round;stroke-width:6.665"/>
   <path d="m95.453 829.86c0.67656-0.58241 0.87018-4.1278-0.90669-3.0894-12.602 7.3643-21.176 24.864-22.454 33.294-0.47456 3.1299 7.083-1.7423 7.7646-4.9169 1.5131-7.0472 5.4754-16.575 15.596-25.288z" style="fill:#ffffff;paint-order:markers stroke fill;stroke-linecap:round;stroke-width:2.3134"/>
   <path d="m131.44 1139.9c-2.6409-0.4045-6.6612 3.6587-0.54967 5.639 43.344 14.044 123.19-5.6295 157.59-36.21 6.4193-4.8044-12.191-4.6819-18.841 0.8864-34.069 28.526-98.691 35.732-138.2 29.684z" style="fill:#ffffff;paint-order:markers stroke fill;stroke-linecap:round;stroke-width:6.665"/>
   <path d="m195.52 1129.6c-3.2907 0.6935-1.6759 2.2624 0.11544 2.1126 20.349-1.7016 34.365-5.4267 44.915-13.82 1.936-1.2859-2.8384-7.4995-7.0888-3.8291-6.0317 5.2086-14.87 10.674-37.942 15.536z" style="fill:#ffffff;paint-order:markers stroke fill;stroke-linecap:round;stroke-width:1.959"/>
  </g>
 </g>
 <g id="ring">
   <g transform="translate(-195.86 -258.27)" id="ring1" style="--order: 1">
   <ellipse cx="317.94" cy="355.97" rx="68.352" ry="33.199" style="fill:#ff0000;paint-order:markers stroke fill"/>
   </g>
   <g transform="translate(-195.86 -258.27)">
   <ellipse cx="317.41" cy="353.46" rx="53.482" ry="23.968" style="fill:#ffffff;paint-order:markers stroke fill"/>
   </g>
   <g id="ring2" style="--order: 2">
   <ellipse cx="122.08" cy="93.327" rx="37.98" ry="15.683" style="fill:#ff0000;paint-order:markers stroke fill"/>
   </g>
   <g>
   <ellipse cx="121.55" cy="92.408" rx="24.617" ry="9.1345" style="fill:#ffffff;paint-order:markers stroke fill"/>
   </g>
 </g>

</svg>
