<?xml version="1.0" encoding="UTF-8" standalone="no"?>
<svg
   xmlns:dc="http://purl.org/dc/elements/1.1/"
   xmlns:cc="http://creativecommons.org/ns#"
   xmlns:rdf="http://www.w3.org/1999/02/22-rdf-syntax-ns#"
   xmlns:svg="http://www.w3.org/2000/svg"
   xmlns="http://www.w3.org/2000/svg"
   id="svg6643"
   version="1.1"
   viewBox="0 0 71.24836 71.248878"
   height="71.248878mm"
   width="71.24836mm">
  <defs
     id="defs6637" />
  <metadata
     id="metadata6640">
    <rdf:RDF>
      <cc:Work
         rdf:about="">
        <dc:format>image/svg+xml</dc:format>
        <dc:type
           rdf:resource="http://purl.org/dc/dcmitype/StillImage" />
        <dc:title></dc:title>
      </cc:Work>
    </rdf:RDF>
  </metadata>
  <g
     transform="translate(-61.326782,-157.04888)"
     id="layer1">
    <path
       d="m 96.950965,157.04888 a 35.624251,35.624251 0 0 0 -35.624183,35.6247 35.624251,35.624251 0 0 0 35.624183,35.62418 35.624251,35.624251 0 0 0 35.624175,-35.62418 35.624251,35.624251 0 0 0 -35.624175,-35.6247 z m -0.04754,16.39487 a 19.229534,19.229534 0 0 1 0.04754,0 19.229534,19.229534 0 0 1 19.229315,19.22983 A 19.229534,19.229534 0 0 1 96.950965,211.9029 19.229534,19.229534 0 0 1 77.72113,192.67358 19.229534,19.229534 0 0 1 96.903422,173.44375 Z"
       style="fill:#00ff00;stroke:none;stroke-width:7.9516;stroke-linecap:round;paint-order:markers stroke fill"
       id="path7206" />
  </g>
</svg>
